{"asset":{"version":"2.0","generator":"babylon.js glTF exporter for 3dsmax 2020 v20210225.1"},"extensionsUsed":["KHR_texture_transform"],"extensionsRequired":["KHR_texture_transform"],"scene":0,"scenes":[{"nodes":[0]}],"nodes":[{"children":[1,4,6,8],"translation":[0.2032,-0.648487449,0.26035],"scale":[0.8959771,0.8959771,0.8959771],"name":"Hopper002"},{"children":[2],"mesh":0,"translation":[-0.4953978,0.187981889,-0.3756234],"rotation":[1.27031479E-08,-5.25937338E-09,-0.5000001,0.8660254],"scale":[1.11610007,1.11610019,1.11609983],"name":"DumpChute001"},{"children":[3],"mesh":1,"translation":[0.2426692,0.002790285,0.0],"rotation":[1.2904863E-08,2.23518679E-08,0.5000001,0.8660253],"scale":[1.0,1.0,1.00000012],"name":"NutAndBolt011"},{"mesh":2,"translation":[-6.055832E-08,-4.84466547E-08,6.055832E-09],"rotation":[0.7070891,-0.00501840049,-0.00501833949,0.7070888],"scale":[1.00000048,0.999999642,1.0000006],"name":"ChuteDoorStruts001"},{"children":[5],"mesh":3,"translation":[-0.439875335,-0.0438371,-0.3756234],"rotation":[2.78970074E-08,2.41769158E-07,0.116561987,0.993183434],"scale":[1.11610031,1.11610007,1.1161],"name":"HopperPiston001"},{"mesh":4,"translation":[0.0,1.45339968E-07,0.0],"rotation":[1.67784108E-15,1.78270564E-16,-0.121869363,0.992546141],"scale":[0.9999999,0.9999998,1.0],"name":"NutAndBolt013"},{"children":[7],"mesh":5,"translation":[-0.4953978,0.187981889,-0.375623375],"rotation":[2.98023579E-08,6.675551E-09,2.38418579E-07,1.0],"scale":[1.11609983,1.11609983,1.11609983],"name":"NutAndBolt010"},{"mesh":6,"translation":[1.21116642E-07,9.689331E-08,1.8167496E-08],"rotation":[1.92857676E-08,4.20005961E-07,0.1165615,0.9931835],"name":"HopperHydraulics001"},{"children":[9],"mesh":7,"translation":[-0.5084666,-0.07991571,-0.375623375],"rotation":[0.0,6.67555033E-09,0.0,1.0],"scale":[1.11609983,1.11609983,1.11609983],"name":"NutAndBolt012"},{"mesh":8,"translation":[4.84466547E-08,-9.689331E-08,0.0],"rotation":[0.169532612,-0.686483,-0.6864826,0.16953288],"scale":[1.00000048,1.00000083,1.00000131],"name":"ChuteDoorStruts002"}],"meshes":[{"primitives":[{"attributes":{"POSITION":1,"NORMAL":2,"COLOR_0":3,"TEXCOORD_0":4},"indices":0,"material":0}],"name":"DumpChute001"},{"primitives":[{"attributes":{"POSITION":6,"NORMAL":7,"COLOR_0":8,"TEXCOORD_0":9},"indices":5,"material":0}],"name":"NutAndBolt011"},{"primitives":[{"attributes":{"POSITION":11,"NORMAL":12,"COLOR_0":13,"TEXCOORD_0":14},"indices":10,"material":0}],"name":"ChuteDoorStruts001"},{"primitives":[{"attributes":{"POSITION":16,"NORMAL":17,"COLOR_0":18,"TEXCOORD_0":19},"indices":15,"material":0}],"name":"HopperPiston001"},{"primitives":[{"attributes":{"POSITION":21,"NORMAL":22,"COLOR_0":23,"TEXCOORD_0":24},"indices":20,"material":0}],"name":"NutAndBolt013"},{"primitives":[{"attributes":{"POSITION":26,"NORMAL":27,"COLOR_0":28,"TEXCOORD_0":29},"indices":25,"material":0}],"name":"NutAndBolt010"},{"primitives":[{"attributes":{"POSITION":31,"NORMAL":32,"COLOR_0":33,"TEXCOORD_0":34},"indices":30,"material":0}],"name":"HopperHydraulics001"},{"primitives":[{"attributes":{"POSITION":36,"NORMAL":37,"COLOR_0":38,"TEXCOORD_0":39},"indices":35,"material":0}],"name":"NutAndBolt012"},{"primitives":[{"attributes":{"POSITION":41,"NORMAL":42,"COLOR_0":43,"TEXCOORD_0":44},"indices":40,"material":0}],"name":"ChuteDoorStruts002"}],"accessors":[{"bufferView":0,"componentType":5123,"count":402,"type":"SCALAR","name":"accessorIndices"},{"bufferView":1,"componentType":5126,"count":402,"max":[0.313950241,0.07654569,0.0762],"min":[-0.194049761,-0.005831197,-0.0762],"type":"VEC3","name":"accessorPositions"},{"bufferView":1,"byteOffset":4824,"componentType":5126,"count":402,"type":"VEC3","name":"accessorNormals"},{"bufferView":2,"componentType":5126,"count":402,"type":"VEC4","name":"accessorColors"},{"bufferView":3,"componentType":5126,"count":402,"type":"VEC2","name":"accessorUVs"},{"bufferView":0,"byteOffset":804,"componentType":5123,"count":468,"type":"SCALAR","name":"accessorIndices"},{"bufferView":1,"byteOffset":9648,"componentType":5126,"count":468,"max":[0.00266715279,0.00307361013,0.0131609095],"min":[-0.00266923,-0.003073616,-0.0131609077],"type":"VEC3","name":"accessorPositions"},{"bufferView":1,"byteOffset":15264,"componentType":5126,"count":468,"type":"VEC3","name":"accessorNormals"},{"bufferView":2,"byteOffset":6432,"componentType":5126,"count":468,"type":"VEC4","name":"accessorColors"},{"bufferView":3,"byteOffset":3216,"componentType":5126,"count":468,"type":"VEC2","name":"accessorUVs"},{"bufferView":0,"byteOffset":1740,"componentType":5123,"count":408,"type":"SCALAR","name":"accessorIndices"},{"bufferView":1,"byteOffset":20880,"componentType":5126,"count":408,"max":[0.005077918,0.008255,0.00506985327],"min":[-0.07589728,-0.008255001,-0.00509014772],"type":"VEC3","name":"accessorPositions"},{"bufferView":1,"byteOffset":25776,"componentType":5126,"count":408,"type":"VEC3","name":"accessorNormals"},{"bufferView":2,"byteOffset":13920,"componentType":5126,"count":408,"type":"VEC4","name":"accessorColors"},{"bufferView":3,"byteOffset":6960,"componentType":5126,"count":408,"type":"VEC2","name":"accessorUVs"},{"bufferView":0,"byteOffset":2556,"componentType":5123,"count":360,"type":"SCALAR","name":"accessorIndices"},{"bufferView":1,"byteOffset":30672,"componentType":5126,"count":360,"max":[0.009089522,0.120079972,0.0141792772],"min":[-0.009109031,-0.006337779,-0.0141792772],"type":"VEC3","name":"accessorPositions"},{"bufferView":1,"byteOffset":34992,"componentType":5126,"count":360,"type":"VEC3","name":"accessorNormals"},{"bufferView":2,"byteOffset":20448,"componentType":5126,"count":360,"type":"VEC4","name":"accessorColors"},{"bufferView":3,"byteOffset":10224,"componentType":5126,"count":360,"type":"VEC2","name":"accessorUVs"},{"bufferView":0,"byteOffset":3276,"componentType":5123,"count":468,"type":"SCALAR","name":"accessorIndices"},{"bufferView":1,"byteOffset":39312,"componentType":5126,"count":468,"max":[0.00266904221,0.003073562,0.01951091],"min":[-0.00266734068,-0.00307366438,-0.01951091],"type":"VEC3","name":"accessorPositions"},{"bufferView":1,"byteOffset":44928,"componentType":5126,"count":468,"type":"VEC3","name":"accessorNormals"},{"bufferView":2,"byteOffset":26208,"componentType":5126,"count":468,"type":"VEC4","name":"accessorColors"},{"bufferView":3,"byteOffset":13104,"componentType":5126,"count":468,"type":"VEC2","name":"accessorUVs"},{"bufferView":0,"byteOffset":4212,"componentType":5123,"count":468,"type":"SCALAR","name":"accessorIndices"},{"bufferView":1,"byteOffset":50544,"componentType":5126,"count":468,"max":[0.00266922382,0.00307361013,0.0131609095],"min":[-0.002667159,-0.003073616,-0.0131609077],"type":"VEC3","name":"accessorPositions"},{"bufferView":1,"byteOffset":56160,"componentType":5126,"count":468,"type":"VEC3","name":"accessorNormals"},{"bufferView":2,"byteOffset":33696,"componentType":5126,"count":468,"type":"VEC4","name":"accessorColors"},{"bufferView":3,"byteOffset":16848,"componentType":5126,"count":468,"type":"VEC2","name":"accessorUVs"},{"bufferView":0,"byteOffset":5148,"componentType":5123,"count":324,"type":"SCALAR","name":"accessorIndices"},{"bufferView":1,"byteOffset":61776,"componentType":5126,"count":324,"max":[0.0130004724,0.0062119877,0.0127],"min":[-0.0123995282,-0.132218108,-0.0127],"type":"VEC3","name":"accessorPositions"},{"bufferView":1,"byteOffset":65664,"componentType":5126,"count":324,"type":"VEC3","name":"accessorNormals"},{"bufferView":2,"byteOffset":41184,"componentType":5126,"count":324,"type":"VEC4","name":"accessorColors"},{"bufferView":3,"byteOffset":20592,"componentType":5126,"count":324,"type":"VEC2","name":"accessorUVs"},{"bufferView":0,"byteOffset":5796,"componentType":5123,"count":468,"type":"SCALAR","name":"accessorIndices"},{"bufferView":1,"byteOffset":69552,"componentType":5126,"count":468,"max":[0.00266915117,0.003073562,0.01951091],"min":[-0.00266723172,-0.00307366438,-0.01951091],"type":"VEC3","name":"accessorPositions"},{"bufferView":1,"byteOffset":75168,"componentType":5126,"count":468,"type":"VEC3","name":"accessorNormals"},{"bufferView":2,"byteOffset":46368,"componentType":5126,"count":468,"type":"VEC4","name":"accessorColors"},{"bufferView":3,"byteOffset":23184,"componentType":5126,"count":468,"type":"VEC2","name":"accessorUVs"},{"bufferView":0,"byteOffset":6732,"componentType":5123,"count":204,"type":"SCALAR","name":"accessorIndices"},{"bufferView":1,"byteOffset":80784,"componentType":5126,"count":204,"max":[0.005085494,0.00254001841,0.005085666],"min":[-0.0758897,-0.002539982,-0.005074335],"type":"VEC3","name":"accessorPositions"},{"bufferView":1,"byteOffset":83232,"componentType":5126,"count":204,"type":"VEC3","name":"accessorNormals"},{"bufferView":2,"byteOffset":53856,"componentType":5126,"count":204,"type":"VEC4","name":"accessorColors"},{"bufferView":3,"byteOffset":26928,"componentType":5126,"count":204,"type":"VEC2","name":"accessorUVs"},{"bufferView":4,"componentType":5126,"count":19,"max":[1.16666663],"min":[0.0],"type":"SCALAR","name":"accessorAnimationInput"},{"bufferView":5,"componentType":5126,"count":19,"type":"VEC4","name":"accessorAnimationRotations"},{"bufferView":4,"byteOffset":76,"componentType":5126,"count":3,"max":[1.16666663],"min":[0.0],"type":"SCALAR","name":"accessorAnimationInput"},{"bufferView":5,"byteOffset":304,"componentType":5126,"count":3,"type":"VEC4","name":"accessorAnimationRotations"},{"bufferView":4,"byteOffset":88,"componentType":5126,"count":3,"max":[1.16666663],"min":[0.0],"type":"SCALAR","name":"accessorAnimationInput"},{"bufferView":6,"componentType":5126,"count":3,"type":"VEC3","name":"accessorAnimationPositions"},{"bufferView":4,"byteOffset":100,"componentType":5126,"count":3,"max":[1.16666663],"min":[0.0],"type":"SCALAR","name":"accessorAnimationInput"},{"bufferView":5,"byteOffset":352,"componentType":5126,"count":3,"type":"VEC4","name":"accessorAnimationRotations"},{"bufferView":4,"byteOffset":112,"componentType":5126,"count":3,"max":[1.16666663],"min":[0.0],"type":"SCALAR","name":"accessorAnimationInput"},{"bufferView":5,"byteOffset":400,"componentType":5126,"count":3,"type":"VEC4","name":"accessorAnimationRotations"},{"bufferView":4,"byteOffset":124,"componentType":5126,"count":5,"max":[1.16666663],"min":[0.0],"type":"SCALAR","name":"accessorAnimationInput"},{"bufferView":5,"byteOffset":448,"componentType":5126,"count":5,"type":"VEC4","name":"accessorAnimationRotations"},{"bufferView":4,"byteOffset":144,"componentType":5126,"count":22,"max":[1.16666663],"min":[0.0],"type":"SCALAR","name":"accessorAnimationInput"},{"bufferView":5,"byteOffset":528,"componentType":5126,"count":22,"type":"VEC4","name":"accessorAnimationRotations"},{"bufferView":4,"byteOffset":232,"componentType":5126,"count":4,"max":[1.4666667],"min":[0.0],"type":"SCALAR","name":"accessorAnimationInput"},{"bufferView":5,"byteOffset":880,"componentType":5126,"count":4,"type":"VEC4","name":"accessorAnimationRotations"},{"bufferView":4,"byteOffset":248,"componentType":5126,"count":4,"max":[1.4666667],"min":[0.0],"type":"SCALAR","name":"accessorAnimationInput"},{"bufferView":6,"byteOffset":36,"componentType":5126,"count":4,"type":"VEC3","name":"accessorAnimationPositions"},{"bufferView":4,"byteOffset":264,"componentType":5126,"count":4,"max":[1.4666667],"min":[0.0],"type":"SCALAR","name":"accessorAnimationInput"},{"bufferView":5,"byteOffset":944,"componentType":5126,"count":4,"type":"VEC4","name":"accessorAnimationRotations"},{"bufferView":4,"byteOffset":280,"componentType":5126,"count":4,"max":[1.4666667],"min":[0.0],"type":"SCALAR","name":"accessorAnimationInput"},{"bufferView":5,"byteOffset":1008,"componentType":5126,"count":4,"type":"VEC4","name":"accessorAnimationRotations"},{"bufferView":4,"byteOffset":296,"componentType":5126,"count":7,"max":[1.4666667],"min":[0.0],"type":"SCALAR","name":"accessorAnimationInput"},{"bufferView":5,"byteOffset":1072,"componentType":5126,"count":7,"type":"VEC4","name":"accessorAnimationRotations"},{"bufferView":4,"byteOffset":324,"componentType":5126,"count":17,"max":[1.4666667],"min":[0.0],"type":"SCALAR","name":"accessorAnimationInput"},{"bufferView":5,"byteOffset":1184,"componentType":5126,"count":17,"type":"VEC4","name":"accessorAnimationRotations"},{"bufferView":4,"byteOffset":392,"componentType":5126,"count":16,"max":[1.4666667],"min":[0.0],"type":"SCALAR","name":"accessorAnimationInput"},{"bufferView":5,"byteOffset":1456,"componentType":5126,"count":16,"type":"VEC4","name":"accessorAnimationRotations"}],"bufferViews":[{"buffer":0,"byteLength":7140,"name":"bufferViewScalar"},{"buffer":0,"byteOffset":7140,"byteLength":85680,"byteStride":12,"name":"bufferViewFloatVec3"},{"buffer":0,"byteOffset":92820,"byteLength":57120,"byteStride":16,"name":"bufferViewFloatVec4"},{"buffer":0,"byteOffset":149940,"byteLength":28560,"byteStride":8,"name":"bufferViewFloatVec2"},{"buffer":0,"byteOffset":178500,"byteLength":456,"name":"bufferViewAnimationFloatScalar"},{"buffer":0,"byteOffset":178956,"byteLength":1712,"name":"bufferViewAnimationFloatVec4"},{"buffer":0,"byteOffset":180668,"byteLength":84,"name":"bufferViewAnimationFloatVec3"}],"buffers":[{"uri":"PelletMill_DumpChuteInternals_WithAnimClips.bin","byteLength":180752}],"materials":[{"pbrMetallicRoughness":{"baseColorTexture":{"index":2,"extensions":{"KHR_texture_transform":{"texCoord":0}}},"metallicRoughnessTexture":{"index":1,"extensions":{"KHR_texture_transform":{"texCoord":0}}}},"normalTexture":{"index":0,"extensions":{"KHR_texture_transform":{"texCoord":0}}},"occlusionTexture":{"index":1,"extensions":{"KHR_texture_transform":{"texCoord":0}}},"name":"Inner Parts PBR","extras":{"babylonUseFactors":false,"babylonDirectIntensity":1.0,"babylonEmissiveIntensity":1.0,"babylonEnvironmentIntensity":1.0,"babylonSpecularIntensity":1.0}}],"textures":[{"sampler":0,"source":0,"name":"Inner Part Material_Normal_OpenGL.jpg"},{"sampler":0,"source":1,"name":"Inner Part Material_Ambient_occlusionInner Part Material_RoughnessInner Part Material_Metallic.jpg"},{"sampler":0,"source":2,"name":"Inner Part Material_Base_Color.jpg"}],"images":[{"uri":"./Inner Part Material_Normal_OpenGL.jpg"},{"uri":"./Inner Part Material_Ambient_occlusionInner Part Material_RoughnessInner Part Material_Metallic.jpg"},{"uri":"./Inner Part Material_Base_Color.jpg"}],"samplers":[{"magFilter":9729,"minFilter":9987}],"animations":[{"channels":[{"sampler":0,"target":{"node":0,"path":"rotation"}},{"sampler":1,"target":{"node":7,"path":"rotation"}},{"sampler":2,"target":{"node":4,"path":"translation"}},{"sampler":3,"target":{"node":4,"path":"rotation"}},{"sampler":4,"target":{"node":1,"path":"rotation"}},{"sampler":5,"target":{"node":3,"path":"rotation"}},{"sampler":6,"target":{"node":9,"path":"rotation"}}],"samplers":[{"input":45,"output":46},{"input":47,"output":48},{"input":49,"output":50},{"input":51,"output":52},{"input":53,"output":54},{"input":55,"output":56},{"input":57,"output":58}],"name":"DoorOpen"},{"channels":[{"sampler":0,"target":{"node":7,"path":"rotation"}},{"sampler":1,"target":{"node":4,"path":"translation"}},{"sampler":2,"target":{"node":4,"path":"rotation"}},{"sampler":3,"target":{"node":1,"path":"rotation"}},{"sampler":4,"target":{"node":3,"path":"rotation"}},{"sampler":5,"target":{"node":9,"path":"rotation"}},{"sampler":6,"target":{"node":0,"path":"rotation"}}],"samplers":[{"input":59,"output":60},{"input":61,"output":62},{"input":63,"output":64},{"input":65,"output":66},{"input":67,"output":68},{"input":69,"output":70},{"input":71,"output":72}],"name":"DoorClose"}]}