{"asset":{"version":"2.0","generator":"babylon.js glTF exporter for 3dsmax 2020 v20201204.1"},"extensionsUsed":["KHR_texture_transform"],"extensionsRequired":["KHR_texture_transform"],"scene":0,"scenes":[{"nodes":[0,1]}],"nodes":[{"mesh":0,"translation":[0.7112,0.581914,-0.106832385],"scale":[0.4980513,1.0,1.0],"name":"FeederShaft001"},{"name":"Default light"}],"meshes":[{"primitives":[{"attributes":{"POSITION":1,"NORMAL":2,"COLOR_0":3,"TEXCOORD_0":4},"indices":0,"material":0}],"name":"FeederShaft001"}],"accessors":[{"bufferView":0,"componentType":5123,"count":3492,"type":"SCALAR","name":"accessorIndices"},{"bufferView":1,"componentType":5126,"count":3492,"max":[1.93795323,0.08307904,0.08307897],"min":[0.0,-0.08307904,-0.08307904],"type":"VEC3","name":"accessorPositions"},{"bufferView":1,"byteOffset":41904,"componentType":5126,"count":3492,"type":"VEC3","name":"accessorNormals"},{"bufferView":2,"componentType":5126,"count":3492,"type":"VEC4","name":"accessorColors"},{"bufferView":3,"componentType":5126,"count":3492,"type":"VEC2","name":"accessorUVs"},{"bufferView":4,"componentType":5126,"count":90,"max":[2.9666667],"min":[0.0],"type":"SCALAR","name":"accessorAnimationInput"},{"bufferView":5,"componentType":5126,"count":90,"type":"VEC4","name":"accessorAnimationRotations"}],"bufferViews":[{"buffer":0,"byteLength":6984,"name":"bufferViewScalar"},{"buffer":0,"byteOffset":6984,"byteLength":83808,"byteStride":12,"name":"bufferViewFloatVec3"},{"buffer":0,"byteOffset":90792,"byteLength":55872,"byteStride":16,"name":"bufferViewFloatVec4"},{"buffer":0,"byteOffset":146664,"byteLength":27936,"byteStride":8,"name":"bufferViewFloatVec2"},{"buffer":0,"byteOffset":174600,"byteLength":360,"name":"bufferViewAnimationFloatScalar"},{"buffer":0,"byteOffset":174960,"byteLength":1440,"name":"bufferViewAnimationFloatVec4"}],"buffers":[{"uri":"PelletMill_FeederScrew_WithAnimClips.bin","byteLength":176400}],"materials":[{"pbrMetallicRoughness":{"baseColorTexture":{"index":2,"extensions":{"KHR_texture_transform":{"texCoord":0}}},"metallicRoughnessTexture":{"index":1,"extensions":{"KHR_texture_transform":{"texCoord":0}}}},"normalTexture":{"index":0,"extensions":{"KHR_texture_transform":{"texCoord":0}}},"occlusionTexture":{"index":1,"extensions":{"KHR_texture_transform":{"texCoord":0}}},"name":"Feeder Screw PBR"}],"textures":[{"sampler":0,"source":0,"name":"Feeder Screw Material_Normal_OpenGL.jpg"},{"sampler":0,"source":1,"name":"Feeder Screw Material_Ambient_occlusionFeeder Screw Material_RoughnessFeeder Screw Material_Metallic.jpg"},{"sampler":0,"source":2,"name":"Feeder Screw Material_Base_Color.jpg"}],"images":[{"uri":"./Feeder Screw Material_Normal_OpenGL.jpg"},{"uri":"./Feeder Screw Material_Ambient_occlusionFeeder Screw Material_RoughnessFeeder Screw Material_Metallic.jpg"},{"uri":"./Feeder Screw Material_Base_Color.jpg"}],"samplers":[{"magFilter":9729,"minFilter":9987}],"animations":[{"channels":[{"sampler":0,"target":{"node":0,"path":"rotation"}}],"samplers":[{"input":5,"output":6}],"name":"RotatingParts"}]}