{"asset":{"version":"2.0","generator":"babylon.js glTF exporter for 3dsmax 2020 v20201118.6"},"extensionsUsed":["KHR_texture_transform"],"extensionsRequired":["KHR_texture_transform"],"scene":0,"scenes":[{"nodes":[0,21]}],"nodes":[{"children":[1,2,3,4,5,6,7,8,9,10,11,12,13,14,15,16,17,18,19,20],"mesh":0,"translation":[0.3556,0.0,-2.03687664E-10],"rotation":[-2.38497613E-08,0.0,0.0,1.0],"name":"ConditionerShaft001"},{"mesh":1,"translation":[0.4445,1.2101983E-23,-3.066238E-09],"rotation":[2.38497613E-08,2.98023224E-08,-7.107783E-16,1.0],"name":"NutAndBolt002"},{"mesh":2,"translation":[0.190499991,1.2101983E-23,-3.066238E-09],"rotation":[2.38497613E-08,2.98023224E-08,-7.107783E-16,1.0],"name":"ConditionerPaddle011"},{"mesh":3,"translation":[0.1397,1.2101983E-23,-3.066238E-09],"rotation":[0.70710665,-4.21468371E-08,-4.21468549E-08,0.7071069],"name":"ConditionerPaddle012"},{"mesh":4,"translation":[-0.33274,1.2101983E-23,-3.066238E-09],"rotation":[-1.0,-4.50002559E-15,5.96046448E-08,-7.54978942E-08],"name":"ConditionerPaddle007"},{"mesh":5,"translation":[-0.23114,1.2101983E-23,-3.066238E-09],"rotation":[2.38497613E-08,2.98023224E-08,-7.107783E-16,1.0],"name":"ConditionerPaddle005"},{"mesh":6,"translation":[0.0889,1.2101983E-23,-3.066238E-09],"rotation":[-1.0,-4.50002559E-15,5.96046448E-08,-7.54978942E-08],"name":"ConditionerPaddle013"},{"mesh":7,"translation":[-0.0279400088,1.2101983E-23,-3.066238E-09],"rotation":[2.38497613E-08,2.98023224E-08,-7.107783E-16,1.0],"name":"ConditionerPaddle001"},{"mesh":8,"translation":[0.0254,1.2101983E-23,-3.066238E-09],"rotation":[2.38497613E-08,2.98023224E-08,-7.107783E-16,1.0],"name":"NutAndBolt001"},{"mesh":9,"translation":[-0.28194,1.2101983E-23,-3.066238E-09],"rotation":[0.70710665,-4.21468371E-08,-4.21468549E-08,0.7071069],"name":"ConditionerPaddle006"},{"mesh":10,"translation":[-0.43434,1.2101983E-23,-3.066238E-09],"rotation":[2.38497613E-08,2.98023224E-08,-7.107783E-16,1.0],"name":"ConditionerPaddle009"},{"mesh":11,"translation":[-0.48514,1.2101983E-23,-3.066238E-09],"rotation":[-1.0,-4.50002559E-15,5.96046448E-08,-7.54978942E-08],"name":"ConditionerPaddle010"},{"mesh":12,"translation":[0.0635,1.2101983E-23,-3.066238E-09],"rotation":[-0.7071068,1.21667316E-08,1.21667325E-08,0.7071067],"name":"ConditionerPaddle014"},{"mesh":13,"translation":[0.3937,1.2101983E-23,-3.066238E-09],"rotation":[2.38497613E-08,2.98023224E-08,-7.107783E-16,1.0],"name":"ConditionerPaddle015"},{"mesh":14,"translation":[-0.18034,1.2101983E-23,-3.066238E-09],"rotation":[-0.7071068,1.21667316E-08,1.21667325E-08,0.7071067],"name":"ConditionerPaddle004"},{"mesh":15,"translation":[-0.38354,1.2101983E-23,-3.066238E-09],"rotation":[-0.70710665,1.64251091E-07,1.64250977E-07,0.7071069],"name":"ConditionerPaddle008"},{"mesh":16,"translation":[0.3429,1.2101983E-23,-3.066238E-09],"rotation":[0.70710665,-4.21468371E-08,-4.21468549E-08,0.7071069],"name":"ConditionerPaddle016"},{"mesh":17,"translation":[-0.07874001,1.2101983E-23,-3.066238E-09],"rotation":[0.70710665,-4.21468371E-08,-4.21468549E-08,0.7071069],"name":"ConditionerPaddle002"},{"mesh":18,"translation":[-0.129540011,1.2101983E-23,-3.066238E-09],"rotation":[-1.0,-4.50002559E-15,5.96046448E-08,-7.54978942E-08],"name":"ConditionerPaddle003"},{"mesh":19,"translation":[0.292099983,1.2101983E-23,-3.066238E-09],"rotation":[-1.0,-4.50002559E-15,5.96046448E-08,-7.54978942E-08],"name":"ConditionerPaddle017"},{"mesh":20,"translation":[0.2413,1.2101983E-23,-3.066238E-09],"rotation":[-0.7071068,1.21667316E-08,1.21667325E-08,0.7071067],"name":"ConditionerPaddle018"},{"name":"Default light"}],"meshes":[{"primitives":[{"attributes":{"POSITION":1,"NORMAL":2,"COLOR_0":3,"TEXCOORD_0":4},"indices":0,"material":0}],"name":"ConditionerShaft001"},{"primitives":[{"attributes":{"POSITION":6,"NORMAL":7,"COLOR_0":8,"TEXCOORD_0":9},"indices":5,"material":0}],"name":"NutAndBolt002"},{"primitives":[{"attributes":{"POSITION":11,"NORMAL":12,"COLOR_0":13,"TEXCOORD_0":14},"indices":10,"material":0}],"name":"ConditionerPaddle011"},{"primitives":[{"attributes":{"POSITION":16,"NORMAL":17,"COLOR_0":18,"TEXCOORD_0":19},"indices":15,"material":0}],"name":"ConditionerPaddle012"},{"primitives":[{"attributes":{"POSITION":21,"NORMAL":22,"COLOR_0":23,"TEXCOORD_0":24},"indices":20,"material":0}],"name":"ConditionerPaddle007"},{"primitives":[{"attributes":{"POSITION":26,"NORMAL":27,"COLOR_0":28,"TEXCOORD_0":29},"indices":25,"material":0}],"name":"ConditionerPaddle005"},{"primitives":[{"attributes":{"POSITION":31,"NORMAL":32,"COLOR_0":33,"TEXCOORD_0":34},"indices":30,"material":0}],"name":"ConditionerPaddle013"},{"primitives":[{"attributes":{"POSITION":36,"NORMAL":37,"COLOR_0":38,"TEXCOORD_0":39},"indices":35,"material":0}],"name":"ConditionerPaddle001"},{"primitives":[{"attributes":{"POSITION":41,"NORMAL":42,"COLOR_0":43,"TEXCOORD_0":44},"indices":40,"material":0}],"name":"NutAndBolt001"},{"primitives":[{"attributes":{"POSITION":46,"NORMAL":47,"COLOR_0":48,"TEXCOORD_0":49},"indices":45,"material":0}],"name":"ConditionerPaddle006"},{"primitives":[{"attributes":{"POSITION":51,"NORMAL":52,"COLOR_0":53,"TEXCOORD_0":54},"indices":50,"material":0}],"name":"ConditionerPaddle009"},{"primitives":[{"attributes":{"POSITION":56,"NORMAL":57,"COLOR_0":58,"TEXCOORD_0":59},"indices":55,"material":0}],"name":"ConditionerPaddle010"},{"primitives":[{"attributes":{"POSITION":61,"NORMAL":62,"COLOR_0":63,"TEXCOORD_0":64},"indices":60,"material":0}],"name":"ConditionerPaddle014"},{"primitives":[{"attributes":{"POSITION":66,"NORMAL":67,"COLOR_0":68,"TEXCOORD_0":69},"indices":65,"material":0}],"name":"ConditionerPaddle015"},{"primitives":[{"attributes":{"POSITION":71,"NORMAL":72,"COLOR_0":73,"TEXCOORD_0":74},"indices":70,"material":0}],"name":"ConditionerPaddle004"},{"primitives":[{"attributes":{"POSITION":76,"NORMAL":77,"COLOR_0":78,"TEXCOORD_0":79},"indices":75,"material":0}],"name":"ConditionerPaddle008"},{"primitives":[{"attributes":{"POSITION":81,"NORMAL":82,"COLOR_0":83,"TEXCOORD_0":84},"indices":80,"material":0}],"name":"ConditionerPaddle016"},{"primitives":[{"attributes":{"POSITION":86,"NORMAL":87,"COLOR_0":88,"TEXCOORD_0":89},"indices":85,"material":0}],"name":"ConditionerPaddle002"},{"primitives":[{"attributes":{"POSITION":91,"NORMAL":92,"COLOR_0":93,"TEXCOORD_0":94},"indices":90,"material":0}],"name":"ConditionerPaddle003"},{"primitives":[{"attributes":{"POSITION":96,"NORMAL":97,"COLOR_0":98,"TEXCOORD_0":99},"indices":95,"material":0}],"name":"ConditionerPaddle017"},{"primitives":[{"attributes":{"POSITION":101,"NORMAL":102,"COLOR_0":103,"TEXCOORD_0":104},"indices":100,"material":0}],"name":"ConditionerPaddle018"}],"accessors":[{"bufferView":0,"componentType":5123,"count":132,"type":"SCALAR","name":"accessorIndices"},{"bufferView":1,"componentType":5126,"count":132,"max":[0.711199939,0.0254,0.0254],"min":[-0.6570133,-0.0254,-0.0254000034],"type":"VEC3","name":"accessorPositions"},{"bufferView":1,"byteOffset":1584,"componentType":5126,"count":132,"type":"VEC3","name":"accessorNormals"},{"bufferView":2,"componentType":5126,"count":132,"type":"VEC4","name":"accessorColors"},{"bufferView":3,"componentType":5126,"count":132,"type":"VEC2","name":"accessorUVs"},{"bufferView":0,"byteOffset":264,"componentType":5123,"count":468,"type":"SCALAR","name":"accessorIndices"},{"bufferView":1,"byteOffset":3168,"componentType":5126,"count":468,"max":[0.0132186227,0.0431799963,0.0152410483],"min":[-0.0132092014,-0.0406399779,-0.0152410464],"type":"VEC3","name":"accessorPositions"},{"bufferView":1,"byteOffset":8784,"componentType":5126,"count":468,"type":"VEC3","name":"accessorNormals"},{"bufferView":2,"byteOffset":2112,"componentType":5126,"count":468,"type":"VEC4","name":"accessorColors"},{"bufferView":3,"byteOffset":1056,"componentType":5126,"count":468,"type":"VEC2","name":"accessorUVs"},{"bufferView":0,"byteOffset":1200,"componentType":5123,"count":582,"type":"SCALAR","name":"accessorIndices"},{"bufferView":1,"byteOffset":14400,"componentType":5126,"count":582,"max":[0.0289114714,0.0431799963,0.0152400006],"min":[-0.0289114714,-0.183129862,-0.0152400006],"type":"VEC3","name":"accessorPositions"},{"bufferView":1,"byteOffset":21384,"componentType":5126,"count":582,"type":"VEC3","name":"accessorNormals"},{"bufferView":2,"byteOffset":9600,"componentType":5126,"count":582,"type":"VEC4","name":"accessorColors"},{"bufferView":3,"byteOffset":4800,"componentType":5126,"count":582,"type":"VEC2","name":"accessorUVs"},{"bufferView":0,"byteOffset":2364,"componentType":5123,"count":582,"type":"SCALAR","name":"accessorIndices"},{"bufferView":1,"byteOffset":28368,"componentType":5126,"count":582,"max":[0.0289114714,0.0431799963,0.0152400006],"min":[-0.0289114714,-0.183129862,-0.0152400006],"type":"VEC3","name":"accessorPositions"},{"bufferView":1,"byteOffset":35352,"componentType":5126,"count":582,"type":"VEC3","name":"accessorNormals"},{"bufferView":2,"byteOffset":18912,"componentType":5126,"count":582,"type":"VEC4","name":"accessorColors"},{"bufferView":3,"byteOffset":9456,"componentType":5126,"count":582,"type":"VEC2","name":"accessorUVs"},{"bufferView":0,"byteOffset":3528,"componentType":5123,"count":582,"type":"SCALAR","name":"accessorIndices"},{"bufferView":1,"byteOffset":42336,"componentType":5126,"count":582,"max":[0.0289114714,0.0431799963,0.0152400006],"min":[-0.0289114714,-0.183129862,-0.0152400006],"type":"VEC3","name":"accessorPositions"},{"bufferView":1,"byteOffset":49320,"componentType":5126,"count":582,"type":"VEC3","name":"accessorNormals"},{"bufferView":2,"byteOffset":28224,"componentType":5126,"count":582,"type":"VEC4","name":"accessorColors"},{"bufferView":3,"byteOffset":14112,"componentType":5126,"count":582,"type":"VEC2","name":"accessorUVs"},{"bufferView":0,"byteOffset":4692,"componentType":5123,"count":582,"type":"SCALAR","name":"accessorIndices"},{"bufferView":1,"byteOffset":56304,"componentType":5126,"count":582,"max":[0.0289114714,0.0431799963,0.0152400006],"min":[-0.0289114714,-0.183129862,-0.0152400006],"type":"VEC3","name":"accessorPositions"},{"bufferView":1,"byteOffset":63288,"componentType":5126,"count":582,"type":"VEC3","name":"accessorNormals"},{"bufferView":2,"byteOffset":37536,"componentType":5126,"count":582,"type":"VEC4","name":"accessorColors"},{"bufferView":3,"byteOffset":18768,"componentType":5126,"count":582,"type":"VEC2","name":"accessorUVs"},{"bufferView":0,"byteOffset":5856,"componentType":5123,"count":582,"type":"SCALAR","name":"accessorIndices"},{"bufferView":1,"byteOffset":70272,"componentType":5126,"count":582,"max":[0.0289114714,0.0431799963,0.0152400006],"min":[-0.0289114714,-0.183129862,-0.0152400006],"type":"VEC3","name":"accessorPositions"},{"bufferView":1,"byteOffset":77256,"componentType":5126,"count":582,"type":"VEC3","name":"accessorNormals"},{"bufferView":2,"byteOffset":46848,"componentType":5126,"count":582,"type":"VEC4","name":"accessorColors"},{"bufferView":3,"byteOffset":23424,"componentType":5126,"count":582,"type":"VEC2","name":"accessorUVs"},{"bufferView":0,"byteOffset":7020,"componentType":5123,"count":582,"type":"SCALAR","name":"accessorIndices"},{"bufferView":1,"byteOffset":84240,"componentType":5126,"count":582,"max":[0.0289114714,0.0431799963,0.0152400006],"min":[-0.0289114714,-0.183129862,-0.0152400006],"type":"VEC3","name":"accessorPositions"},{"bufferView":1,"byteOffset":91224,"componentType":5126,"count":582,"type":"VEC3","name":"accessorNormals"},{"bufferView":2,"byteOffset":56160,"componentType":5126,"count":582,"type":"VEC4","name":"accessorColors"},{"bufferView":3,"byteOffset":28080,"componentType":5126,"count":582,"type":"VEC2","name":"accessorUVs"},{"bufferView":0,"byteOffset":8184,"componentType":5123,"count":468,"type":"SCALAR","name":"accessorIndices"},{"bufferView":1,"byteOffset":98208,"componentType":5126,"count":468,"max":[0.0132185984,0.0431799963,0.0152410483],"min":[-0.0132092014,-0.0406399779,-0.0152410464],"type":"VEC3","name":"accessorPositions"},{"bufferView":1,"byteOffset":103824,"componentType":5126,"count":468,"type":"VEC3","name":"accessorNormals"},{"bufferView":2,"byteOffset":65472,"componentType":5126,"count":468,"type":"VEC4","name":"accessorColors"},{"bufferView":3,"byteOffset":32736,"componentType":5126,"count":468,"type":"VEC2","name":"accessorUVs"},{"bufferView":0,"byteOffset":9120,"componentType":5123,"count":582,"type":"SCALAR","name":"accessorIndices"},{"bufferView":1,"byteOffset":109440,"componentType":5126,"count":582,"max":[0.0289114714,0.0431799963,0.0152400006],"min":[-0.0289114714,-0.183129862,-0.0152400006],"type":"VEC3","name":"accessorPositions"},{"bufferView":1,"byteOffset":116424,"componentType":5126,"count":582,"type":"VEC3","name":"accessorNormals"},{"bufferView":2,"byteOffset":72960,"componentType":5126,"count":582,"type":"VEC4","name":"accessorColors"},{"bufferView":3,"byteOffset":36480,"componentType":5126,"count":582,"type":"VEC2","name":"accessorUVs"},{"bufferView":0,"byteOffset":10284,"componentType":5123,"count":582,"type":"SCALAR","name":"accessorIndices"},{"bufferView":1,"byteOffset":123408,"componentType":5126,"count":582,"max":[0.0289114714,0.0431799963,0.0152400006],"min":[-0.0289114714,-0.183129862,-0.0152400006],"type":"VEC3","name":"accessorPositions"},{"bufferView":1,"byteOffset":130392,"componentType":5126,"count":582,"type":"VEC3","name":"accessorNormals"},{"bufferView":2,"byteOffset":82272,"componentType":5126,"count":582,"type":"VEC4","name":"accessorColors"},{"bufferView":3,"byteOffset":41136,"componentType":5126,"count":582,"type":"VEC2","name":"accessorUVs"},{"bufferView":0,"byteOffset":11448,"componentType":5123,"count":582,"type":"SCALAR","name":"accessorIndices"},{"bufferView":1,"byteOffset":137376,"componentType":5126,"count":582,"max":[0.0289114714,0.0431799963,0.0152400006],"min":[-0.0289114714,-0.183129862,-0.0152400006],"type":"VEC3","name":"accessorPositions"},{"bufferView":1,"byteOffset":144360,"componentType":5126,"count":582,"type":"VEC3","name":"accessorNormals"},{"bufferView":2,"byteOffset":91584,"componentType":5126,"count":582,"type":"VEC4","name":"accessorColors"},{"bufferView":3,"byteOffset":45792,"componentType":5126,"count":582,"type":"VEC2","name":"accessorUVs"},{"bufferView":0,"byteOffset":12612,"componentType":5123,"count":582,"type":"SCALAR","name":"accessorIndices"},{"bufferView":1,"byteOffset":151344,"componentType":5126,"count":582,"max":[0.0289114714,0.0431799963,0.0152400006],"min":[-0.0289114714,-0.183129862,-0.0152400006],"type":"VEC3","name":"accessorPositions"},{"bufferView":1,"byteOffset":158328,"componentType":5126,"count":582,"type":"VEC3","name":"accessorNormals"},{"bufferView":2,"byteOffset":100896,"componentType":5126,"count":582,"type":"VEC4","name":"accessorColors"},{"bufferView":3,"byteOffset":50448,"componentType":5126,"count":582,"type":"VEC2","name":"accessorUVs"},{"bufferView":0,"byteOffset":13776,"componentType":5123,"count":582,"type":"SCALAR","name":"accessorIndices"},{"bufferView":1,"byteOffset":165312,"componentType":5126,"count":582,"max":[0.0289114714,0.0431799963,0.0152400006],"min":[-0.0289114714,-0.183129862,-0.0152400006],"type":"VEC3","name":"accessorPositions"},{"bufferView":1,"byteOffset":172296,"componentType":5126,"count":582,"type":"VEC3","name":"accessorNormals"},{"bufferView":2,"byteOffset":110208,"componentType":5126,"count":582,"type":"VEC4","name":"accessorColors"},{"bufferView":3,"byteOffset":55104,"componentType":5126,"count":582,"type":"VEC2","name":"accessorUVs"},{"bufferView":0,"byteOffset":14940,"componentType":5123,"count":582,"type":"SCALAR","name":"accessorIndices"},{"bufferView":1,"byteOffset":179280,"componentType":5126,"count":582,"max":[0.0289114714,0.0431799963,0.0152400006],"min":[-0.0289114714,-0.183129862,-0.0152400006],"type":"VEC3","name":"accessorPositions"},{"bufferView":1,"byteOffset":186264,"componentType":5126,"count":582,"type":"VEC3","name":"accessorNormals"},{"bufferView":2,"byteOffset":119520,"componentType":5126,"count":582,"type":"VEC4","name":"accessorColors"},{"bufferView":3,"byteOffset":59760,"componentType":5126,"count":582,"type":"VEC2","name":"accessorUVs"},{"bufferView":0,"byteOffset":16104,"componentType":5123,"count":582,"type":"SCALAR","name":"accessorIndices"},{"bufferView":1,"byteOffset":193248,"componentType":5126,"count":582,"max":[0.0289114714,0.0431799963,0.0152400006],"min":[-0.0289114714,-0.183129862,-0.0152400006],"type":"VEC3","name":"accessorPositions"},{"bufferView":1,"byteOffset":200232,"componentType":5126,"count":582,"type":"VEC3","name":"accessorNormals"},{"bufferView":2,"byteOffset":128832,"componentType":5126,"count":582,"type":"VEC4","name":"accessorColors"},{"bufferView":3,"byteOffset":64416,"componentType":5126,"count":582,"type":"VEC2","name":"accessorUVs"},{"bufferView":0,"byteOffset":17268,"componentType":5123,"count":582,"type":"SCALAR","name":"accessorIndices"},{"bufferView":1,"byteOffset":207216,"componentType":5126,"count":582,"max":[0.0289114714,0.0431799963,0.0152400006],"min":[-0.0289114714,-0.183129862,-0.0152400006],"type":"VEC3","name":"accessorPositions"},{"bufferView":1,"byteOffset":214200,"componentType":5126,"count":582,"type":"VEC3","name":"accessorNormals"},{"bufferView":2,"byteOffset":138144,"componentType":5126,"count":582,"type":"VEC4","name":"accessorColors"},{"bufferView":3,"byteOffset":69072,"componentType":5126,"count":582,"type":"VEC2","name":"accessorUVs"},{"bufferView":0,"byteOffset":18432,"componentType":5123,"count":582,"type":"SCALAR","name":"accessorIndices"},{"bufferView":1,"byteOffset":221184,"componentType":5126,"count":582,"max":[0.0289114714,0.0431799963,0.0152400006],"min":[-0.0289114714,-0.183129862,-0.0152400006],"type":"VEC3","name":"accessorPositions"},{"bufferView":1,"byteOffset":228168,"componentType":5126,"count":582,"type":"VEC3","name":"accessorNormals"},{"bufferView":2,"byteOffset":147456,"componentType":5126,"count":582,"type":"VEC4","name":"accessorColors"},{"bufferView":3,"byteOffset":73728,"componentType":5126,"count":582,"type":"VEC2","name":"accessorUVs"},{"bufferView":0,"byteOffset":19596,"componentType":5123,"count":582,"type":"SCALAR","name":"accessorIndices"},{"bufferView":1,"byteOffset":235152,"componentType":5126,"count":582,"max":[0.0289114714,0.0431799963,0.0152400006],"min":[-0.0289114714,-0.183129862,-0.0152400006],"type":"VEC3","name":"accessorPositions"},{"bufferView":1,"byteOffset":242136,"componentType":5126,"count":582,"type":"VEC3","name":"accessorNormals"},{"bufferView":2,"byteOffset":156768,"componentType":5126,"count":582,"type":"VEC4","name":"accessorColors"},{"bufferView":3,"byteOffset":78384,"componentType":5126,"count":582,"type":"VEC2","name":"accessorUVs"},{"bufferView":0,"byteOffset":20760,"componentType":5123,"count":582,"type":"SCALAR","name":"accessorIndices"},{"bufferView":1,"byteOffset":249120,"componentType":5126,"count":582,"max":[0.0289114714,0.0431799963,0.0152400006],"min":[-0.0289114714,-0.183129862,-0.0152400006],"type":"VEC3","name":"accessorPositions"},{"bufferView":1,"byteOffset":256104,"componentType":5126,"count":582,"type":"VEC3","name":"accessorNormals"},{"bufferView":2,"byteOffset":166080,"componentType":5126,"count":582,"type":"VEC4","name":"accessorColors"},{"bufferView":3,"byteOffset":83040,"componentType":5126,"count":582,"type":"VEC2","name":"accessorUVs"},{"bufferView":0,"byteOffset":21924,"componentType":5123,"count":582,"type":"SCALAR","name":"accessorIndices"},{"bufferView":1,"byteOffset":263088,"componentType":5126,"count":582,"max":[0.0289114714,0.0431799963,0.0152400006],"min":[-0.0289114714,-0.183129862,-0.0152400006],"type":"VEC3","name":"accessorPositions"},{"bufferView":1,"byteOffset":270072,"componentType":5126,"count":582,"type":"VEC3","name":"accessorNormals"},{"bufferView":2,"byteOffset":175392,"componentType":5126,"count":582,"type":"VEC4","name":"accessorColors"},{"bufferView":3,"byteOffset":87696,"componentType":5126,"count":582,"type":"VEC2","name":"accessorUVs"},{"bufferView":4,"componentType":5126,"count":91,"max":[3.0],"min":[0.0],"type":"SCALAR","name":"accessorAnimationInput"},{"bufferView":5,"componentType":5126,"count":91,"type":"VEC4","name":"accessorAnimationRotations"}],"bufferViews":[{"buffer":0,"byteLength":23088,"name":"bufferViewScalar"},{"buffer":0,"byteOffset":23088,"byteLength":277056,"byteStride":12,"name":"bufferViewFloatVec3"},{"buffer":0,"byteOffset":300144,"byteLength":184704,"byteStride":16,"name":"bufferViewFloatVec4"},{"buffer":0,"byteOffset":484848,"byteLength":92352,"byteStride":8,"name":"bufferViewFloatVec2"},{"buffer":0,"byteOffset":577200,"byteLength":364,"name":"bufferViewAnimationFloatScalar"},{"buffer":0,"byteOffset":577564,"byteLength":1456,"name":"bufferViewAnimationFloatVec4"}],"buffers":[{"uri":"PelletMill_ConditionerShaft.bin","byteLength":579020}],"materials":[{"pbrMetallicRoughness":{"baseColorTexture":{"index":2,"extensions":{"KHR_texture_transform":{"offset":[0.0,0.0],"scale":[1.0,1.0],"texCoord":0}}},"metallicRoughnessTexture":{"index":1,"extensions":{"KHR_texture_transform":{"offset":[0.0,0.0],"scale":[1.0,1.0],"texCoord":0}}}},"normalTexture":{"index":0,"extensions":{"KHR_texture_transform":{"offset":[0.0,0.0],"scale":[1.0,1.0],"texCoord":0}}},"occlusionTexture":{"index":1,"extensions":{"KHR_texture_transform":{"offset":[0.0,0.0],"scale":[1.0,1.0],"texCoord":0}}},"name":"Conditioner Shaft PBR"}],"textures":[{"sampler":0,"source":0,"name":"Conditioner Shaft Material_Normal_OpenGL.jpg"},{"sampler":0,"source":1,"name":"Conditioner Shaft Material_Ambient_occlusionConditioner Shaft Material_RoughnessConditioner Shaft Material_Metallic.jpg"},{"sampler":0,"source":2,"name":"Conditioner Shaft Material_Base_Color.jpg"}],"images":[{"uri":"./Conditioner Shaft Material_Normal_OpenGL.jpg"},{"uri":"./Conditioner Shaft Material_Ambient_occlusionConditioner Shaft Material_RoughnessConditioner Shaft Material_Metallic.jpg"},{"uri":"./Conditioner Shaft Material_Base_Color.jpg"}],"samplers":[{"magFilter":9729,"minFilter":9987}],"animations":[{"channels":[{"sampler":0,"target":{"node":0,"path":"rotation"}}],"samplers":[{"input":105,"output":106}],"name":"All Animations"}]}