{"asset":{"version":"2.0","generator":"babylon.js glTF exporter for 3dsmax 2020 v20201204.1"},"extensionsUsed":["KHR_texture_transform"],"extensionsRequired":["KHR_texture_transform"],"scene":0,"scenes":[{"nodes":[0,10,18,19,23]}],"nodes":[{"children":[1,2,3,4,5,6,7],"mesh":0,"translation":[0.127,-0.6096,-0.0762],"name":"PelletDie001"},{"mesh":1,"translation":[-0.0823905,0.131274641,-0.07579147],"scale":[0.6265277,0.6265277,0.6265277],"name":"BoltAndWasher001"},{"mesh":2,"translation":[-0.0823905,-0.131274536,0.07579134],"rotation":[0.0,0.0,8.742278E-08,1.0],"scale":[0.6265277,0.6265277,0.6265277],"name":"BoltAndWasher002"},{"mesh":3,"translation":[-0.0823905,0.131274641,0.07579131],"scale":[0.6265277,0.6265277,0.6265277],"name":"BoltAndWasher003"},{"mesh":4,"translation":[-0.0823905,-0.131274536,-0.07579147],"rotation":[4.371139E-08,-4.371139E-08,-4.371139E-08,1.0],"scale":[0.6265277,0.6265277,0.6265277],"name":"BoltAndWasher004"},{"mesh":5,"translation":[-0.0823905,9.689331E-08,0.151582733],"rotation":[4.371139E-08,-4.371139E-08,-4.371139E-08,1.0],"scale":[0.6265277,0.6265277,0.6265277],"name":"BoltAndWasher005"},{"mesh":6,"translation":[-0.0823905,0.0,-0.1515829],"rotation":[4.371139E-08,-4.371139E-08,4.371139E-08,1.0],"scale":[0.6265277,0.6265277,0.6265277],"name":"BoltAndWasher006"},{"children":[8,9],"mesh":7,"translation":[0.0390757881,0.0,0.0],"scale":[0.65,0.65,0.65],"name":"SecuringRing001"},{"mesh":8,"translation":[2.664566E-07,0.349275529,-4.84466547E-08],"rotation":[4.371139E-08,4.371139E-08,-4.371139E-08,1.0],"name":"NutAndBolt009"},{"mesh":9,"translation":[2.42233273E-08,-0.34927538,-4.84466547E-08],"rotation":[4.371139E-08,-4.371139E-08,4.371139E-08,1.0],"name":"NutAndBolt008"},{"children":[11,12,13,14,15,16,17],"mesh":10,"translation":[0.0530689433,-0.6096,-0.0762],"name":"PelletDieRollerMount001"},{"mesh":11,"translation":[-0.0197792239,-0.000555876934,-0.02632435],"rotation":[0.0,0.0,0.7071068,0.7071067],"name":"BoltAndWasher009"},{"mesh":12,"translation":[-0.016337866,-0.0239554178,1.21116637E-08],"rotation":[4.01812059E-07,4.018121E-07,0.7071068,0.7071067],"name":"BoltAndWasher008"},{"mesh":13,"translation":[-0.016337866,0.0228434689,1.21116637E-08],"rotation":[0.0,0.0,0.7071068,0.7071067],"name":"BoltAndWasher007"},{"mesh":14,"translation":[-0.0239578448,-0.000555876934,1.21116637E-08],"rotation":[0.0,0.0,0.7071068,0.7071067],"name":"PelletDieScraper001"},{"mesh":15,"translation":[0.07393105,0.0,0.0660399944],"name":"PelletDieRoller001"},{"mesh":16,"translation":[0.07393105,0.0,-0.06603999],"rotation":[1.45083159E-05,-1.45083159E-05,0.7071068,0.7071068],"name":"PelletDieRoller002"},{"mesh":17,"translation":[-0.0197792239,-0.000555876934,0.0263243616],"rotation":[0.0,0.0,0.7071068,0.7071067],"name":"BoltAndWasher010"},{"mesh":18,"translation":[0.761999965,-0.8255096,-0.0762],"name":"PelletDieDriveShaft001"},{"children":[20],"mesh":19,"translation":[0.441959977,-0.825509667,-0.0762],"name":"PelletDieDriveshaftSeal001"},{"children":[21,22],"mesh":20,"translation":[-0.00126998057,9.689331E-06,0.0],"rotation":[0.0,0.0,0.7071068,0.7071067],"scale":[0.09041106,0.09041106,0.09041106],"name":"SecuringRing002"},{"mesh":21,"translation":[-0.3492756,-0.0634996146,-9.689331E-08],"rotation":[-0.499998629,-0.4999988,0.500001252,0.500001431],"scale":[1.84576261,2.29645038,1.84576261],"name":"NutAndBolt015"},{"mesh":22,"translation":[0.3492748,-0.0635,-9.689331E-08],"rotation":[-0.5000008,0.5000002,0.499999434,-0.499999732],"scale":[1.84576261,2.29645038,1.84576261],"name":"NutAndBolt014"},{"name":"Default light"}],"meshes":[{"primitives":[{"attributes":{"POSITION":1,"NORMAL":2,"COLOR_0":3,"TEXCOORD_0":4},"indices":0,"material":0}],"name":"PelletDie001"},{"primitives":[{"attributes":{"POSITION":6,"NORMAL":7,"COLOR_0":8,"TEXCOORD_0":9},"indices":5,"material":0}],"name":"BoltAndWasher001"},{"primitives":[{"attributes":{"POSITION":11,"NORMAL":12,"COLOR_0":13,"TEXCOORD_0":14},"indices":10,"material":0}],"name":"BoltAndWasher002"},{"primitives":[{"attributes":{"POSITION":16,"NORMAL":17,"COLOR_0":18,"TEXCOORD_0":19},"indices":15,"material":0}],"name":"BoltAndWasher003"},{"primitives":[{"attributes":{"POSITION":21,"NORMAL":22,"COLOR_0":23,"TEXCOORD_0":24},"indices":20,"material":0}],"name":"BoltAndWasher004"},{"primitives":[{"attributes":{"POSITION":26,"NORMAL":27,"COLOR_0":28,"TEXCOORD_0":29},"indices":25,"material":0}],"name":"BoltAndWasher005"},{"primitives":[{"attributes":{"POSITION":31,"NORMAL":32,"COLOR_0":33,"TEXCOORD_0":34},"indices":30,"material":0}],"name":"BoltAndWasher006"},{"primitives":[{"attributes":{"POSITION":36,"NORMAL":37,"COLOR_0":38,"TEXCOORD_0":39},"indices":35,"material":0}],"name":"SecuringRing001"},{"primitives":[{"attributes":{"POSITION":41,"NORMAL":42,"COLOR_0":43,"TEXCOORD_0":44},"indices":40,"material":0}],"name":"NutAndBolt009"},{"primitives":[{"attributes":{"POSITION":46,"NORMAL":47,"COLOR_0":48,"TEXCOORD_0":49},"indices":45,"material":0}],"name":"NutAndBolt008"},{"primitives":[{"attributes":{"POSITION":51,"NORMAL":52,"COLOR_0":53,"TEXCOORD_0":54},"indices":50,"material":0}],"name":"PelletDieRollerMount001"},{"primitives":[{"attributes":{"POSITION":56,"NORMAL":57,"COLOR_0":58,"TEXCOORD_0":59},"indices":55,"material":0}],"name":"BoltAndWasher009"},{"primitives":[{"attributes":{"POSITION":61,"NORMAL":62,"COLOR_0":63,"TEXCOORD_0":64},"indices":60,"material":0}],"name":"BoltAndWasher008"},{"primitives":[{"attributes":{"POSITION":66,"NORMAL":67,"COLOR_0":68,"TEXCOORD_0":69},"indices":65,"material":0}],"name":"BoltAndWasher007"},{"primitives":[{"attributes":{"POSITION":71,"NORMAL":72,"COLOR_0":73,"TEXCOORD_0":74},"indices":70,"material":0}],"name":"PelletDieScraper001"},{"primitives":[{"attributes":{"POSITION":76,"NORMAL":77,"COLOR_0":78,"TEXCOORD_0":79},"indices":75,"material":0}],"name":"PelletDieRoller001"},{"primitives":[{"attributes":{"POSITION":81,"NORMAL":82,"COLOR_0":83,"TEXCOORD_0":84},"indices":80,"material":0}],"name":"PelletDieRoller002"},{"primitives":[{"attributes":{"POSITION":86,"NORMAL":87,"COLOR_0":88,"TEXCOORD_0":89},"indices":85,"material":0}],"name":"BoltAndWasher010"},{"primitives":[{"attributes":{"POSITION":91,"NORMAL":92,"COLOR_0":93,"TEXCOORD_0":94},"indices":90,"material":0}],"name":"PelletDieDriveShaft001"},{"primitives":[{"attributes":{"POSITION":96,"NORMAL":97,"COLOR_0":98,"TEXCOORD_0":99},"indices":95,"material":0}],"name":"PelletDieDriveshaftSeal001"},{"primitives":[{"attributes":{"POSITION":101,"NORMAL":102,"COLOR_0":103,"TEXCOORD_0":104},"indices":100,"material":0}],"name":"SecuringRing002"},{"primitives":[{"attributes":{"POSITION":106,"NORMAL":107,"COLOR_0":108,"TEXCOORD_0":109},"indices":105,"material":0}],"name":"NutAndBolt015"},{"primitives":[{"attributes":{"POSITION":111,"NORMAL":112,"COLOR_0":113,"TEXCOORD_0":114},"indices":110,"material":0}],"name":"NutAndBolt014"}],"accessors":[{"bufferView":0,"componentType":5123,"count":2484,"type":"SCALAR","name":"accessorIndices"},{"bufferView":1,"componentType":5126,"count":2484,"max":[0.406399935,0.1960987,0.196098655],"min":[-0.148268268,-0.196098685,-0.196098775],"type":"VEC3","name":"accessorPositions"},{"bufferView":1,"byteOffset":29808,"componentType":5126,"count":2484,"type":"VEC3","name":"accessorNormals"},{"bufferView":2,"componentType":5126,"count":2484,"type":"VEC4","name":"accessorColors"},{"bufferView":3,"componentType":5126,"count":2484,"type":"VEC2","name":"accessorUVs"},{"bufferView":0,"byteOffset":4968,"componentType":5123,"count":180,"type":"SCALAR","name":"accessorIndices"},{"bufferView":1,"byteOffset":59616,"componentType":5126,"count":180,"max":[4.470385E-09,0.0195808634,0.0195808616],"min":[-0.0156646948,-0.0195808616,-0.0195808634],"type":"VEC3","name":"accessorPositions"},{"bufferView":1,"byteOffset":61776,"componentType":5126,"count":180,"type":"VEC3","name":"accessorNormals"},{"bufferView":2,"byteOffset":39744,"componentType":5126,"count":180,"type":"VEC4","name":"accessorColors"},{"bufferView":3,"byteOffset":19872,"componentType":5126,"count":180,"type":"VEC2","name":"accessorUVs"},{"bufferView":0,"byteOffset":5328,"componentType":5123,"count":180,"type":"SCALAR","name":"accessorIndices"},{"bufferView":1,"byteOffset":63936,"componentType":5126,"count":180,"max":[3.33875438E-09,0.0192833915,0.01928339],"min":[-0.0156646948,-0.01928339,-0.01928339],"type":"VEC3","name":"accessorPositions"},{"bufferView":1,"byteOffset":66096,"componentType":5126,"count":180,"type":"VEC3","name":"accessorNormals"},{"bufferView":2,"byteOffset":42624,"componentType":5126,"count":180,"type":"VEC4","name":"accessorColors"},{"bufferView":3,"byteOffset":21312,"componentType":5126,"count":180,"type":"VEC2","name":"accessorUVs"},{"bufferView":0,"byteOffset":5688,"componentType":5123,"count":180,"type":"SCALAR","name":"accessorIndices"},{"bufferView":1,"byteOffset":68256,"componentType":5126,"count":180,"max":[5.196074E-09,0.0189136639,0.0189136639],"min":[-0.0156646967,-0.0189136639,-0.0189136658],"type":"VEC3","name":"accessorPositions"},{"bufferView":1,"byteOffset":70416,"componentType":5126,"count":180,"type":"VEC3","name":"accessorNormals"},{"bufferView":2,"byteOffset":45504,"componentType":5126,"count":180,"type":"VEC4","name":"accessorColors"},{"bufferView":3,"byteOffset":22752,"componentType":5126,"count":180,"type":"VEC2","name":"accessorUVs"},{"bufferView":0,"byteOffset":6048,"componentType":5123,"count":180,"type":"SCALAR","name":"accessorIndices"},{"bufferView":1,"byteOffset":72576,"componentType":5126,"count":180,"max":[3.895185E-09,0.0192833841,0.0192833822],"min":[-0.0156646948,-0.01928338,-0.01928338],"type":"VEC3","name":"accessorPositions"},{"bufferView":1,"byteOffset":74736,"componentType":5126,"count":180,"type":"VEC3","name":"accessorNormals"},{"bufferView":2,"byteOffset":48384,"componentType":5126,"count":180,"type":"VEC4","name":"accessorColors"},{"bufferView":3,"byteOffset":24192,"componentType":5126,"count":180,"type":"VEC2","name":"accessorUVs"},{"bufferView":0,"byteOffset":6408,"componentType":5123,"count":180,"type":"SCALAR","name":"accessorIndices"},{"bufferView":1,"byteOffset":76896,"componentType":5126,"count":180,"max":[6.146755E-09,0.0195808634,0.0195808616],"min":[-0.0156646967,-0.0195808616,-0.0195808616],"type":"VEC3","name":"accessorPositions"},{"bufferView":1,"byteOffset":79056,"componentType":5126,"count":180,"type":"VEC3","name":"accessorNormals"},{"bufferView":2,"byteOffset":51264,"componentType":5126,"count":180,"type":"VEC4","name":"accessorColors"},{"bufferView":3,"byteOffset":25632,"componentType":5126,"count":180,"type":"VEC2","name":"accessorUVs"},{"bufferView":0,"byteOffset":6768,"componentType":5123,"count":180,"type":"SCALAR","name":"accessorIndices"},{"bufferView":1,"byteOffset":81216,"componentType":5126,"count":180,"max":[9.729366E-09,0.0192833878,0.0192833859],"min":[-0.0156646986,-0.0192833859,-0.01928339],"type":"VEC3","name":"accessorPositions"},{"bufferView":1,"byteOffset":83376,"componentType":5126,"count":180,"type":"VEC3","name":"accessorNormals"},{"bufferView":2,"byteOffset":54144,"componentType":5126,"count":180,"type":"VEC4","name":"accessorColors"},{"bufferView":3,"byteOffset":27072,"componentType":5126,"count":180,"type":"VEC2","name":"accessorUVs"},{"bufferView":0,"byteOffset":7128,"componentType":5123,"count":504,"type":"SCALAR","name":"accessorIndices"},{"bufferView":1,"byteOffset":85536,"componentType":5126,"count":504,"max":[0.03810008,0.380999982,0.332888067],"min":[-0.0381,-0.3810001,-0.332888067],"type":"VEC3","name":"accessorPositions"},{"bufferView":1,"byteOffset":91584,"componentType":5126,"count":504,"type":"VEC3","name":"accessorNormals"},{"bufferView":2,"byteOffset":57024,"componentType":5126,"count":504,"type":"VEC4","name":"accessorColors"},{"bufferView":3,"byteOffset":28512,"componentType":5126,"count":504,"type":"VEC2","name":"accessorUVs"},{"bufferView":0,"byteOffset":8136,"componentType":5123,"count":468,"type":"SCALAR","name":"accessorIndices"},{"bufferView":1,"byteOffset":97632,"componentType":5126,"count":468,"max":[0.0267487541,0.02897331,0.09332769],"min":[-0.0267141573,-0.0289732851,-0.09916071],"type":"VEC3","name":"accessorPositions"},{"bufferView":1,"byteOffset":103248,"componentType":5126,"count":468,"type":"VEC3","name":"accessorNormals"},{"bufferView":2,"byteOffset":65088,"componentType":5126,"count":468,"type":"VEC4","name":"accessorColors"},{"bufferView":3,"byteOffset":32544,"componentType":5126,"count":468,"type":"VEC2","name":"accessorUVs"},{"bufferView":0,"byteOffset":9072,"componentType":5123,"count":468,"type":"SCALAR","name":"accessorIndices"},{"bufferView":1,"byteOffset":108864,"componentType":5126,"count":468,"max":[0.0267141238,0.028973313,0.09916071],"min":[-0.026748782,-0.0289732888,-0.09332769],"type":"VEC3","name":"accessorPositions"},{"bufferView":1,"byteOffset":114480,"componentType":5126,"count":468,"type":"VEC3","name":"accessorNormals"},{"bufferView":2,"byteOffset":72576,"componentType":5126,"count":468,"type":"VEC4","name":"accessorColors"},{"bufferView":3,"byteOffset":36288,"componentType":5126,"count":468,"type":"VEC2","name":"accessorUVs"},{"bufferView":0,"byteOffset":10008,"componentType":5123,"count":2580,"type":"SCALAR","name":"accessorIndices"},{"bufferView":1,"byteOffset":120096,"componentType":5126,"count":2580,"max":[0.162831053,0.04633804,0.08911482],"min":[-0.0251289643,-0.0463381857,-0.089114815],"type":"VEC3","name":"accessorPositions"},{"bufferView":1,"byteOffset":151056,"componentType":5126,"count":2580,"type":"VEC3","name":"accessorNormals"},{"bufferView":2,"byteOffset":80064,"componentType":5126,"count":2580,"type":"VEC4","name":"accessorColors"},{"bufferView":3,"byteOffset":40032,"componentType":5126,"count":2580,"type":"VEC2","name":"accessorUVs"},{"bufferView":0,"byteOffset":15168,"componentType":5123,"count":180,"type":"SCALAR","name":"accessorIndices"},{"bufferView":1,"byteOffset":182016,"componentType":5126,"count":180,"max":[0.006130391,0.00532361632,0.00613039033],"min":[-0.006130391,0.0,-0.00613039033],"type":"VEC3","name":"accessorPositions"},{"bufferView":1,"byteOffset":184176,"componentType":5126,"count":180,"type":"VEC3","name":"accessorNormals"},{"bufferView":2,"byteOffset":121344,"componentType":5126,"count":180,"type":"VEC4","name":"accessorColors"},{"bufferView":3,"byteOffset":60672,"componentType":5126,"count":180,"type":"VEC2","name":"accessorUVs"},{"bufferView":0,"byteOffset":15528,"componentType":5123,"count":180,"type":"SCALAR","name":"accessorIndices"},{"bufferView":1,"byteOffset":186336,"componentType":5126,"count":180,"max":[0.008081623,0.007126329,0.008081624],"min":[-0.008081622,-3.913066E-09,-0.008081623],"type":"VEC3","name":"accessorPositions"},{"bufferView":1,"byteOffset":188496,"componentType":5126,"count":180,"type":"VEC3","name":"accessorNormals"},{"bufferView":2,"byteOffset":124224,"componentType":5126,"count":180,"type":"VEC4","name":"accessorColors"},{"bufferView":3,"byteOffset":62112,"componentType":5126,"count":180,"type":"VEC2","name":"accessorUVs"},{"bufferView":0,"byteOffset":15888,"componentType":5123,"count":180,"type":"SCALAR","name":"accessorIndices"},{"bufferView":1,"byteOffset":190656,"componentType":5126,"count":180,"max":[0.00808162149,0.00712632574,0.008081622],"min":[-0.008081622,0.0,-0.008081622],"type":"VEC3","name":"accessorPositions"},{"bufferView":1,"byteOffset":192816,"componentType":5126,"count":180,"type":"VEC3","name":"accessorNormals"},{"bufferView":2,"byteOffset":127104,"componentType":5126,"count":180,"type":"VEC4","name":"accessorColors"},{"bufferView":3,"byteOffset":63552,"componentType":5126,"count":180,"type":"VEC2","name":"accessorUVs"},{"bufferView":0,"byteOffset":16248,"componentType":5123,"count":336,"type":"SCALAR","name":"accessorIndices"},{"bufferView":1,"byteOffset":194976,"componentType":5126,"count":336,"max":[0.0935977,0.039696306,0.0420509242],"min":[0.0116996942,-0.0278516822,-0.08427892],"type":"VEC3","name":"accessorPositions"},{"bufferView":1,"byteOffset":199008,"componentType":5126,"count":336,"type":"VEC3","name":"accessorNormals"},{"bufferView":2,"byteOffset":129984,"componentType":5126,"count":336,"type":"VEC4","name":"accessorColors"},{"bufferView":3,"byteOffset":64992,"componentType":5126,"count":336,"type":"VEC2","name":"accessorUVs"},{"bufferView":0,"byteOffset":16920,"componentType":5123,"count":576,"type":"SCALAR","name":"accessorIndices"},{"bufferView":1,"byteOffset":203040,"componentType":5126,"count":576,"max":[0.0254000127,0.0373190828,0.0373190865],"min":[-0.106679961,-0.0373190865,-0.0373190865],"type":"VEC3","name":"accessorPositions"},{"bufferView":1,"byteOffset":209952,"componentType":5126,"count":576,"type":"VEC3","name":"accessorNormals"},{"bufferView":2,"byteOffset":135360,"componentType":5126,"count":576,"type":"VEC4","name":"accessorColors"},{"bufferView":3,"byteOffset":67680,"componentType":5126,"count":576,"type":"VEC2","name":"accessorUVs"},{"bufferView":0,"byteOffset":18072,"componentType":5123,"count":576,"type":"SCALAR","name":"accessorIndices"},{"bufferView":1,"byteOffset":216864,"componentType":5126,"count":576,"max":[0.0373190865,0.106679961,0.0373190865],"min":[-0.0373190828,-0.0254000053,-0.0373190865],"type":"VEC3","name":"accessorPositions"},{"bufferView":1,"byteOffset":223776,"componentType":5126,"count":576,"type":"VEC3","name":"accessorNormals"},{"bufferView":2,"byteOffset":144576,"componentType":5126,"count":576,"type":"VEC4","name":"accessorColors"},{"bufferView":3,"byteOffset":72288,"componentType":5126,"count":576,"type":"VEC2","name":"accessorUVs"},{"bufferView":0,"byteOffset":19224,"componentType":5123,"count":180,"type":"SCALAR","name":"accessorIndices"},{"bufferView":1,"byteOffset":230688,"componentType":5126,"count":180,"max":[0.006107062,0.00532361632,0.006107062],"min":[-0.006107062,0.0,-0.006107062],"type":"VEC3","name":"accessorPositions"},{"bufferView":1,"byteOffset":232848,"componentType":5126,"count":180,"type":"VEC3","name":"accessorNormals"},{"bufferView":2,"byteOffset":153792,"componentType":5126,"count":180,"type":"VEC4","name":"accessorColors"},{"bufferView":3,"byteOffset":76896,"componentType":5126,"count":180,"type":"VEC2","name":"accessorUVs"},{"bufferView":0,"byteOffset":19584,"componentType":5123,"count":648,"type":"SCALAR","name":"accessorIndices"},{"bufferView":1,"byteOffset":235008,"componentType":5126,"count":648,"max":[4.13818535E-09,0.0254,0.0254],"min":[-0.5207,-0.0254000761,-0.0254],"type":"VEC3","name":"accessorPositions"},{"bufferView":1,"byteOffset":242784,"componentType":5126,"count":648,"type":"VEC3","name":"accessorNormals"},{"bufferView":2,"byteOffset":156672,"componentType":5126,"count":648,"type":"VEC4","name":"accessorColors"},{"bufferView":3,"byteOffset":78336,"componentType":5126,"count":648,"type":"VEC2","name":"accessorUVs"},{"bufferView":0,"byteOffset":20880,"componentType":5123,"count":288,"type":"SCALAR","name":"accessorIndices"},{"bufferView":1,"byteOffset":250560,"componentType":5126,"count":288,"max":[0.0126999756,0.07072019,0.0707201],"min":[0.007620102,-0.07072,-0.0707201],"type":"VEC3","name":"accessorPositions"},{"bufferView":1,"byteOffset":254016,"componentType":5126,"count":288,"type":"VEC3","name":"accessorNormals"},{"bufferView":2,"byteOffset":167040,"componentType":5126,"count":288,"type":"VEC4","name":"accessorColors"},{"bufferView":3,"byteOffset":83520,"componentType":5126,"count":288,"type":"VEC2","name":"accessorUVs"},{"bufferView":0,"byteOffset":21456,"componentType":5123,"count":504,"type":"SCALAR","name":"accessorIndices"},{"bufferView":1,"byteOffset":257472,"componentType":5126,"count":504,"max":[0.381000072,-0.0254,0.332888067],"min":[-0.381,-0.101600051,-0.332888067],"type":"VEC3","name":"accessorPositions"},{"bufferView":1,"byteOffset":263520,"componentType":5126,"count":504,"type":"VEC3","name":"accessorNormals"},{"bufferView":2,"byteOffset":171648,"componentType":5126,"count":504,"type":"VEC4","name":"accessorColors"},{"bufferView":3,"byteOffset":85824,"componentType":5126,"count":504,"type":"VEC2","name":"accessorUVs"},{"bufferView":0,"byteOffset":22464,"componentType":5123,"count":468,"type":"SCALAR","name":"accessorIndices"},{"bufferView":1,"byteOffset":269568,"componentType":5126,"count":468,"max":[0.013256711,0.0431799963,0.0152400006],"min":[-0.0132391052,-0.0406399779,-0.0152588235],"type":"VEC3","name":"accessorPositions"},{"bufferView":1,"byteOffset":275184,"componentType":5126,"count":468,"type":"VEC3","name":"accessorNormals"},{"bufferView":2,"byteOffset":179712,"componentType":5126,"count":468,"type":"VEC4","name":"accessorColors"},{"bufferView":3,"byteOffset":89856,"componentType":5126,"count":468,"type":"VEC2","name":"accessorUVs"},{"bufferView":0,"byteOffset":23400,"componentType":5123,"count":468,"type":"SCALAR","name":"accessorIndices"},{"bufferView":1,"byteOffset":280800,"componentType":5126,"count":468,"max":[0.0132482937,0.0431799963,0.0152588291],"min":[-0.0132475244,-0.0406399779,-0.0152400006],"type":"VEC3","name":"accessorPositions"},{"bufferView":1,"byteOffset":286416,"componentType":5126,"count":468,"type":"VEC3","name":"accessorNormals"},{"bufferView":2,"byteOffset":187200,"componentType":5126,"count":468,"type":"VEC4","name":"accessorColors"},{"bufferView":3,"byteOffset":93600,"componentType":5126,"count":468,"type":"VEC2","name":"accessorUVs"},{"bufferView":4,"componentType":5126,"count":90,"max":[2.9666667],"min":[0.0],"type":"SCALAR","name":"accessorAnimationInput"},{"bufferView":5,"componentType":5126,"count":90,"type":"VEC4","name":"accessorAnimationRotations"},{"bufferView":4,"byteOffset":360,"componentType":5126,"count":90,"max":[2.9666667],"min":[0.0],"type":"SCALAR","name":"accessorAnimationInput"},{"bufferView":5,"byteOffset":1440,"componentType":5126,"count":90,"type":"VEC4","name":"accessorAnimationRotations"},{"bufferView":4,"byteOffset":720,"componentType":5126,"count":90,"max":[2.9666667],"min":[0.0],"type":"SCALAR","name":"accessorAnimationInput"},{"bufferView":5,"byteOffset":2880,"componentType":5126,"count":90,"type":"VEC4","name":"accessorAnimationRotations"},{"bufferView":4,"byteOffset":1080,"componentType":5126,"count":90,"max":[2.9666667],"min":[0.0],"type":"SCALAR","name":"accessorAnimationInput"},{"bufferView":5,"byteOffset":4320,"componentType":5126,"count":90,"type":"VEC4","name":"accessorAnimationRotations"}],"bufferViews":[{"buffer":0,"byteLength":24336,"name":"bufferViewScalar"},{"buffer":0,"byteOffset":24336,"byteLength":292032,"byteStride":12,"name":"bufferViewFloatVec3"},{"buffer":0,"byteOffset":316368,"byteLength":194688,"byteStride":16,"name":"bufferViewFloatVec4"},{"buffer":0,"byteOffset":511056,"byteLength":97344,"byteStride":8,"name":"bufferViewFloatVec2"},{"buffer":0,"byteOffset":608400,"byteLength":1440,"name":"bufferViewAnimationFloatScalar"},{"buffer":0,"byteOffset":609840,"byteLength":5760,"name":"bufferViewAnimationFloatVec4"}],"buffers":[{"uri":"PelletMill_PelletDieAndInternals_WithAnimClips.bin","byteLength":615600}],"materials":[{"pbrMetallicRoughness":{"baseColorTexture":{"index":2,"extensions":{"KHR_texture_transform":{"texCoord":0}}},"metallicRoughnessTexture":{"index":1,"extensions":{"KHR_texture_transform":{"texCoord":0}}}},"normalTexture":{"index":0,"extensions":{"KHR_texture_transform":{"texCoord":0}}},"occlusionTexture":{"index":1,"extensions":{"KHR_texture_transform":{"texCoord":0}}},"name":"Pellet Die PBR"}],"textures":[{"sampler":0,"source":0,"name":"Pellet Die Group Material_Normal_OpenGL.jpg"},{"sampler":0,"source":1,"name":"Pellet Die Group Material_Ambient_occlusionPellet Die Group Material_RoughnessPellet Die Group Material_Metallic.jpg"},{"sampler":0,"source":2,"name":"Pellet Die Group Material_Base_Color.jpg"}],"images":[{"uri":"./Pellet Die Group Material_Normal_OpenGL.jpg"},{"uri":"./Pellet Die Group Material_Ambient_occlusionPellet Die Group Material_RoughnessPellet Die Group Material_Metallic.jpg"},{"uri":"./Pellet Die Group Material_Base_Color.jpg"}],"samplers":[{"magFilter":9729,"minFilter":9987}],"animations":[{"channels":[{"sampler":0,"target":{"node":0,"path":"rotation"}},{"sampler":1,"target":{"node":15,"path":"rotation"}},{"sampler":2,"target":{"node":16,"path":"rotation"}},{"sampler":3,"target":{"node":18,"path":"rotation"}}],"samplers":[{"input":115,"output":116},{"input":117,"output":118},{"input":119,"output":120},{"input":121,"output":122}],"name":"RotatingParts"}]}