{"asset":{"version":"2.0","generator":"babylon.js glTF exporter for 3dsmax 2020 v20201204.1"},"extensionsUsed":["KHR_texture_transform"],"extensionsRequired":["KHR_texture_transform"],"scene":0,"scenes":[{"nodes":[0,2,3]}],"nodes":[{"children":[1],"translation":[0.3429,-1.0414,-0.0762],"name":"PelletMillBase001"},{"mesh":0,"translation":[-0.182778418,0.4318,-0.380999982],"rotation":[5.236618E-10,1.92464569E-07,-6.0318726E-08,1.0],"scale":[0.241946489,0.301023483,0.241946518],"name":"NutAndBolt020"},{"mesh":1,"translation":[0.160121575,-0.6096,-0.4572],"name":"DoorLatch001"},{"name":"Default light"}],"meshes":[{"primitives":[{"attributes":{"POSITION":1,"NORMAL":2,"COLOR_0":3,"TEXCOORD_0":4},"indices":0,"material":0}],"name":"NutAndBolt020"},{"primitives":[{"attributes":{"POSITION":6,"NORMAL":7,"COLOR_0":8,"TEXCOORD_0":9},"indices":5,"material":0}],"name":"DoorLatch001"}],"accessors":[{"bufferView":0,"componentType":5123,"count":468,"type":"SCALAR","name":"accessorIndices"},{"bufferView":1,"componentType":5126,"count":468,"max":[0.01323841,0.0558368042,0.0152400006],"min":[-0.0132287964,-0.0532968,-0.0152400006],"type":"VEC3","name":"accessorPositions"},{"bufferView":1,"byteOffset":5616,"componentType":5126,"count":468,"type":"VEC3","name":"accessorNormals"},{"bufferView":2,"componentType":5126,"count":468,"type":"VEC4","name":"accessorColors"},{"bufferView":3,"componentType":5126,"count":468,"type":"VEC2","name":"accessorUVs"},{"bufferView":0,"byteOffset":936,"componentType":5123,"count":324,"type":"SCALAR","name":"accessorIndices"},{"bufferView":1,"byteOffset":11232,"componentType":5126,"count":324,"max":[0.0176783986,0.0114702182,0.0635],"min":[-0.038399674,-0.01147023,-0.028522484],"type":"VEC3","name":"accessorPositions"},{"bufferView":1,"byteOffset":15120,"componentType":5126,"count":324,"type":"VEC3","name":"accessorNormals"},{"bufferView":2,"byteOffset":7488,"componentType":5126,"count":324,"type":"VEC4","name":"accessorColors"},{"bufferView":3,"byteOffset":3744,"componentType":5126,"count":324,"type":"VEC2","name":"accessorUVs"},{"bufferView":4,"componentType":5126,"count":15,"max":[1.16666663],"min":[0.0],"type":"SCALAR","name":"accessorAnimationInput"},{"bufferView":5,"componentType":5126,"count":15,"type":"VEC4","name":"accessorAnimationRotations"},{"bufferView":4,"byteOffset":60,"componentType":5126,"count":19,"max":[1.4666667],"min":[0.0],"type":"SCALAR","name":"accessorAnimationInput"},{"bufferView":5,"byteOffset":240,"componentType":5126,"count":19,"type":"VEC4","name":"accessorAnimationRotations"}],"bufferViews":[{"buffer":0,"byteLength":1584,"name":"bufferViewScalar"},{"buffer":0,"byteOffset":1584,"byteLength":19008,"byteStride":12,"name":"bufferViewFloatVec3"},{"buffer":0,"byteOffset":20592,"byteLength":12672,"byteStride":16,"name":"bufferViewFloatVec4"},{"buffer":0,"byteOffset":33264,"byteLength":6336,"byteStride":8,"name":"bufferViewFloatVec2"},{"buffer":0,"byteOffset":39600,"byteLength":136,"name":"bufferViewAnimationFloatScalar"},{"buffer":0,"byteOffset":39736,"byteLength":544,"name":"bufferViewAnimationFloatVec4"}],"buffers":[{"uri":"PelletMill_DoorLatch_WithAnimClips.bin","byteLength":40280}],"materials":[{"pbrMetallicRoughness":{"baseColorTexture":{"index":2,"extensions":{"KHR_texture_transform":{"texCoord":0}}},"metallicRoughnessTexture":{"index":1,"extensions":{"KHR_texture_transform":{"texCoord":0}}}},"normalTexture":{"index":0,"scale":0.3,"extensions":{"KHR_texture_transform":{"texCoord":0}}},"occlusionTexture":{"index":1,"extensions":{"KHR_texture_transform":{"texCoord":0}}},"name":"Door Latch Material PBR"}],"textures":[{"sampler":0,"source":0,"name":"Door Latch Material_Normal_OpenGL.jpg"},{"sampler":0,"source":1,"name":"Door Latch Material_Ambient_occlusionDoor Latch Material_RoughnessDoor Latch Material_Metallic.jpg"},{"sampler":0,"source":2,"name":"Door Latch Material_Base_Color.jpg"}],"images":[{"uri":"./Door Latch Material_Normal_OpenGL.jpg"},{"uri":"./Door Latch Material_Ambient_occlusionDoor Latch Material_RoughnessDoor Latch Material_Metallic.jpg"},{"uri":"./Door Latch Material_Base_Color.jpg"}],"samplers":[{"magFilter":9729,"minFilter":9987}],"animations":[{"channels":[{"sampler":0,"target":{"node":2,"path":"rotation"}}],"samplers":[{"input":10,"output":11}],"name":"DoorOpen"},{"channels":[{"sampler":0,"target":{"node":2,"path":"rotation"}}],"samplers":[{"input":12,"output":13}],"name":"DoorClose"}]}