{"asset":{"version":"2.0","generator":"babylon.js glTF exporter for 3dsmax 2020 v20210225.1"},"extensionsUsed":["KHR_texture_transform"],"extensionsRequired":["KHR_texture_transform"],"scene":0,"scenes":[{"nodes":[0]}],"nodes":[{"mesh":0,"translation":[0.2032,-0.648487449,0.26035],"scale":[0.8959771,0.8959771,0.8959771],"name":"Hopper001"}],"meshes":[{"primitives":[{"attributes":{"POSITION":1,"NORMAL":2,"COLOR_0":3,"TEXCOORD_0":4},"indices":0,"material":0}],"name":"Hopper001"}],"accessors":[{"bufferView":0,"componentType":5123,"count":2892,"type":"SCALAR","name":"accessorIndices"},{"bufferView":1,"componentType":5126,"count":2892,"max":[-0.266282856,0.467639774,-0.261323482],"min":[-0.6810886,-0.2725289,-0.489923477],"type":"VEC3","name":"accessorPositions"},{"bufferView":1,"byteOffset":34704,"componentType":5126,"count":2892,"type":"VEC3","name":"accessorNormals"},{"bufferView":2,"componentType":5126,"count":2892,"type":"VEC4","name":"accessorColors"},{"bufferView":3,"componentType":5126,"count":2892,"type":"VEC2","name":"accessorUVs"},{"bufferView":4,"componentType":5126,"count":19,"max":[1.16666663],"min":[0.0],"type":"SCALAR","name":"accessorAnimationInput"},{"bufferView":5,"componentType":5126,"count":19,"type":"VEC4","name":"accessorAnimationRotations"},{"bufferView":4,"byteOffset":76,"componentType":5126,"count":16,"max":[1.4666667],"min":[0.0],"type":"SCALAR","name":"accessorAnimationInput"},{"bufferView":5,"byteOffset":304,"componentType":5126,"count":16,"type":"VEC4","name":"accessorAnimationRotations"}],"bufferViews":[{"buffer":0,"byteLength":5784,"name":"bufferViewScalar"},{"buffer":0,"byteOffset":5784,"byteLength":69408,"byteStride":12,"name":"bufferViewFloatVec3"},{"buffer":0,"byteOffset":75192,"byteLength":46272,"byteStride":16,"name":"bufferViewFloatVec4"},{"buffer":0,"byteOffset":121464,"byteLength":23136,"byteStride":8,"name":"bufferViewFloatVec2"},{"buffer":0,"byteOffset":144600,"byteLength":140,"name":"bufferViewAnimationFloatScalar"},{"buffer":0,"byteOffset":144740,"byteLength":560,"name":"bufferViewAnimationFloatVec4"}],"buffers":[{"uri":"PelletMill_DumpChute_WithAnimClips.bin","byteLength":145300}],"materials":[{"pbrMetallicRoughness":{"baseColorTexture":{"index":2,"extensions":{"KHR_texture_transform":{"texCoord":0}}},"metallicRoughnessTexture":{"index":1,"extensions":{"KHR_texture_transform":{"texCoord":0}}}},"normalTexture":{"index":0,"extensions":{"KHR_texture_transform":{"texCoord":0}}},"occlusionTexture":{"index":1,"extensions":{"KHR_texture_transform":{"texCoord":0}}},"name":"Dump Chute PBR","extras":{"babylonUseFactors":false,"babylonDirectIntensity":1.0,"babylonEmissiveIntensity":1.0,"babylonEnvironmentIntensity":1.0,"babylonSpecularIntensity":1.0}}],"textures":[{"sampler":0,"source":0,"name":"Dump Chute Material_Normal_OpenGL.jpg"},{"sampler":0,"source":1,"name":"Dump Chute Material_Ambient_occlusionDump Chute Material_RoughnessDump Chute Material_Metallic.jpg"},{"sampler":0,"source":2,"name":"Dump Chute Material_Base_Color.jpg"}],"images":[{"uri":"./Dump Chute Material_Normal_OpenGL.jpg"},{"uri":"./Dump Chute Material_Ambient_occlusionDump Chute Material_RoughnessDump Chute Material_Metallic.jpg"},{"uri":"./Dump Chute Material_Base_Color.jpg"}],"samplers":[{"magFilter":9729,"minFilter":9987}],"animations":[{"channels":[{"sampler":0,"target":{"node":0,"path":"rotation"}}],"samplers":[{"input":5,"output":6}],"name":"DoorOpen"},{"channels":[{"sampler":0,"target":{"node":0,"path":"rotation"}}],"samplers":[{"input":7,"output":8}],"name":"DoorClose"}]}