{"asset":{"version":"2.0","generator":"babylon.js glTF exporter for 3dsmax 2020 v20201118.6"},"extensionsUsed":["KHR_texture_transform"],"extensionsRequired":["KHR_texture_transform"],"scene":0,"scenes":[{"nodes":[0,1]}],"nodes":[{"mesh":0,"rotation":[0.0,0.0,-0.7071068,0.7071068],"name":"Conditioner001"},{"name":"Default light"}],"meshes":[{"primitives":[{"attributes":{"POSITION":1,"NORMAL":2,"COLOR_0":3,"TEXCOORD_0":4},"indices":0,"material":0}],"name":"Conditioner001"}],"accessors":[{"bufferView":0,"componentType":5123,"count":5586,"type":"SCALAR","name":"accessorIndices"},{"bufferView":1,"componentType":5126,"count":5586,"max":[0.3810011,0.999477565,0.229496434],"min":[-0.280058742,-0.3254423,-0.229496017],"type":"VEC3","name":"accessorPositions"},{"bufferView":1,"byteOffset":67032,"componentType":5126,"count":5586,"type":"VEC3","name":"accessorNormals"},{"bufferView":2,"componentType":5126,"count":5586,"type":"VEC4","name":"accessorColors"},{"bufferView":3,"componentType":5126,"count":5586,"type":"VEC2","name":"accessorUVs"}],"bufferViews":[{"buffer":0,"byteLength":11172,"name":"bufferViewScalar"},{"buffer":0,"byteOffset":11172,"byteLength":134064,"byteStride":12,"name":"bufferViewFloatVec3"},{"buffer":0,"byteOffset":145236,"byteLength":89376,"byteStride":16,"name":"bufferViewFloatVec4"},{"buffer":0,"byteOffset":234612,"byteLength":44688,"byteStride":8,"name":"bufferViewFloatVec2"}],"buffers":[{"uri":"PelletMill_Conditioner.bin","byteLength":279300}],"materials":[{"pbrMetallicRoughness":{"baseColorTexture":{"index":2,"extensions":{"KHR_texture_transform":{"offset":[0.0,0.0],"scale":[1.0,1.0],"texCoord":0}}},"metallicRoughnessTexture":{"index":1,"extensions":{"KHR_texture_transform":{"offset":[0.0,0.0],"scale":[1.0,1.0],"texCoord":0}}}},"normalTexture":{"index":0,"extensions":{"KHR_texture_transform":{"offset":[0.0,0.0],"scale":[1.0,1.0],"texCoord":0}}},"occlusionTexture":{"index":1,"extensions":{"KHR_texture_transform":{"offset":[0.0,0.0],"scale":[1.0,1.0],"texCoord":0}}},"name":"Conditioner PBR"}],"textures":[{"sampler":0,"source":0,"name":"Conditioner Material_Normal_OpenGL.jpg"},{"sampler":0,"source":1,"name":"Conditioner Material_Ambient_occlusionConditioner Material_RoughnessConditioner Material_Metallic.jpg"},{"sampler":0,"source":2,"name":"Conditioner Material_Base_Color.jpg"}],"images":[{"uri":"./Conditioner Material_Normal_OpenGL.jpg"},{"uri":"./Conditioner Material_Ambient_occlusionConditioner Material_RoughnessConditioner Material_Metallic.jpg"},{"uri":"./Conditioner Material_Base_Color.jpg"}],"samplers":[{"magFilter":9729,"minFilter":9987}]}