{"asset":{"version":"2.0","generator":"babylon.js glTF exporter for 3dsmax 2020 v20201118.6"},"extensionsUsed":["KHR_texture_transform"],"extensionsRequired":["KHR_texture_transform"],"scene":0,"scenes":[{"nodes":[0,1]}],"nodes":[{"mesh":0,"rotation":[0.0,0.0,-0.7071068,0.7071068],"name":"Feeder001"},{"name":"Default light"}],"meshes":[{"primitives":[{"attributes":{"POSITION":1,"NORMAL":2,"COLOR_0":3,"TEXCOORD_0":4},"indices":0,"material":0}],"name":"Feeder001"}],"accessors":[{"bufferView":0,"componentType":5123,"count":4506,"type":"SCALAR","name":"accessorIndices"},{"bufferView":1,"componentType":5126,"count":4506,"max":[-0.276954174,1.7251879,0.0791566446],"min":[-1.69555187,0.439419985,-0.258292943],"type":"VEC3","name":"accessorPositions"},{"bufferView":1,"byteOffset":54072,"componentType":5126,"count":4506,"type":"VEC3","name":"accessorNormals"},{"bufferView":2,"componentType":5126,"count":4506,"type":"VEC4","name":"accessorColors"},{"bufferView":3,"componentType":5126,"count":4506,"type":"VEC2","name":"accessorUVs"}],"bufferViews":[{"buffer":0,"byteLength":9012,"name":"bufferViewScalar"},{"buffer":0,"byteOffset":9012,"byteLength":108144,"byteStride":12,"name":"bufferViewFloatVec3"},{"buffer":0,"byteOffset":117156,"byteLength":72096,"byteStride":16,"name":"bufferViewFloatVec4"},{"buffer":0,"byteOffset":189252,"byteLength":36048,"byteStride":8,"name":"bufferViewFloatVec2"}],"buffers":[{"uri":"PelletMill_Feeder.bin","byteLength":225300}],"materials":[{"pbrMetallicRoughness":{"baseColorTexture":{"index":2,"extensions":{"KHR_texture_transform":{"offset":[0.0,0.0],"scale":[1.0,1.0],"texCoord":0}}},"metallicRoughnessTexture":{"index":1,"extensions":{"KHR_texture_transform":{"offset":[0.0,0.0],"scale":[1.0,1.0],"texCoord":0}}}},"normalTexture":{"index":0,"extensions":{"KHR_texture_transform":{"offset":[0.0,0.0],"scale":[1.0,1.0],"texCoord":0}}},"occlusionTexture":{"index":1,"extensions":{"KHR_texture_transform":{"offset":[0.0,0.0],"scale":[1.0,1.0],"texCoord":0}}},"name":"Feeder PBR"}],"textures":[{"sampler":0,"source":0,"name":"Feeder Material_Normal_OpenGL.jpg"},{"sampler":0,"source":1,"name":"Feeder Material_Ambient_occlusionFeeder Material_RoughnessFeeder Material_Metallic.jpg"},{"sampler":0,"source":2,"name":"Feeder Material_Base_Color.jpg"}],"images":[{"uri":"./Feeder Material_Normal_OpenGL.jpg"},{"uri":"./Feeder Material_Ambient_occlusionFeeder Material_RoughnessFeeder Material_Metallic.jpg"},{"uri":"./Feeder Material_Base_Color.jpg"}],"samplers":[{"magFilter":9729,"minFilter":9987}]}