{"asset":{"version":"2.0","generator":"babylon.js glTF exporter for 3dsmax 2020 v20201118.6"},"extensionsUsed":["KHR_texture_transform"],"extensionsRequired":["KHR_texture_transform"],"scene":0,"scenes":[{"nodes":[0,1]}],"nodes":[{"mesh":0,"translation":[0.3429,-1.0414,-0.0762],"name":"PelletMillBase001"},{"name":"Default light"}],"meshes":[{"primitives":[{"attributes":{"POSITION":1,"NORMAL":2,"COLOR_0":3,"TEXCOORD_0":4},"indices":0,"material":0}],"name":"PelletMillBase001"}],"accessors":[{"bufferView":0,"componentType":5123,"count":7608,"type":"SCALAR","name":"accessorIndices"},{"bufferView":1,"componentType":5126,"count":7608,"max":[0.889042,0.7428721,0.3683],"min":[-0.190499991,-0.355600059,-0.4172342],"type":"VEC3","name":"accessorPositions"},{"bufferView":1,"byteOffset":91296,"componentType":5126,"count":7608,"type":"VEC3","name":"accessorNormals"},{"bufferView":2,"componentType":5126,"count":7608,"type":"VEC4","name":"accessorColors"},{"bufferView":3,"componentType":5126,"count":7608,"type":"VEC2","name":"accessorUVs"}],"bufferViews":[{"buffer":0,"byteLength":15216,"name":"bufferViewScalar"},{"buffer":0,"byteOffset":15216,"byteLength":182592,"byteStride":12,"name":"bufferViewFloatVec3"},{"buffer":0,"byteOffset":197808,"byteLength":121728,"byteStride":16,"name":"bufferViewFloatVec4"},{"buffer":0,"byteOffset":319536,"byteLength":60864,"byteStride":8,"name":"bufferViewFloatVec2"}],"buffers":[{"uri":"PelletMill_GearboxAndBase.bin","byteLength":380400}],"materials":[{"pbrMetallicRoughness":{"baseColorTexture":{"index":2,"extensions":{"KHR_texture_transform":{"offset":[0.0,0.0],"scale":[1.0,1.0],"texCoord":0}}},"metallicRoughnessTexture":{"index":1,"extensions":{"KHR_texture_transform":{"offset":[0.0,0.0],"scale":[1.0,1.0],"texCoord":0}}}},"normalTexture":{"index":0,"extensions":{"KHR_texture_transform":{"offset":[0.0,0.0],"scale":[1.0,1.0],"texCoord":0}}},"occlusionTexture":{"index":1,"extensions":{"KHR_texture_transform":{"offset":[0.0,0.0],"scale":[1.0,1.0],"texCoord":0}}},"name":"Gearbox PBR"}],"textures":[{"sampler":0,"source":0,"name":"Gearbox Material_Normal_OpenGL.jpg"},{"sampler":0,"source":1,"name":"Gearbox Material_Ambient_occlusionGearbox Material_RoughnessGearbox Material_Metallic.jpg"},{"sampler":0,"source":2,"name":"Gearbox Material_Base_Color.jpg"}],"images":[{"uri":"./Gearbox Material_Normal_OpenGL.jpg"},{"uri":"./Gearbox Material_Ambient_occlusionGearbox Material_RoughnessGearbox Material_Metallic.jpg"},{"uri":"./Gearbox Material_Base_Color.jpg"}],"samplers":[{"magFilter":9729,"minFilter":9987}]}