{"asset":{"version":"2.0","generator":"babylon.js glTF exporter for 3dsmax 2020 v20201118.6"},"extensionsUsed":["KHR_texture_transform"],"extensionsRequired":["KHR_texture_transform"],"scene":0,"scenes":[{"nodes":[0,5]}],"nodes":[{"children":[1,2,3,4],"mesh":0,"translation":[0.2032,-0.6484874,0.26035],"name":"PelletChamberDoor001"},{"mesh":1,"translation":[-0.100914262,0.332502574,-0.0110649252],"rotation":[-4.371139E-08,4.371139E-08,-4.371139E-08,1.0],"name":"KnifePostHandle001"},{"mesh":2,"translation":[-0.0867012739,0.410238147,0.04277573],"name":"KnifePostHandle002"},{"mesh":3,"translation":[-0.100914262,-0.281100243,-0.03751016],"rotation":[-0.9098437,-0.06645209,0.1604301,0.376869768],"scale":[1.0,1.00000024,1.00000012],"name":"KnifePostHandle003"},{"mesh":4,"translation":[-0.0867012739,-0.33494094,0.0402254],"rotation":[-8.742278E-08,-7.642742E-15,8.742278E-08,1.0],"name":"KnifePostHandle004"},{"name":"Default light"}],"meshes":[{"primitives":[{"attributes":{"POSITION":1,"NORMAL":2,"COLOR_0":3,"TEXCOORD_0":4},"indices":0,"material":0}],"name":"PelletChamberDoor001"},{"primitives":[{"attributes":{"POSITION":6,"NORMAL":7,"COLOR_0":8,"TEXCOORD_0":9},"indices":5,"material":0}],"name":"KnifePostHandle001"},{"primitives":[{"attributes":{"POSITION":11,"NORMAL":12,"COLOR_0":13,"TEXCOORD_0":14},"indices":10,"material":0}],"name":"KnifePostHandle002"},{"primitives":[{"attributes":{"POSITION":16,"NORMAL":17,"COLOR_0":18,"TEXCOORD_0":19},"indices":15,"material":0}],"name":"KnifePostHandle003"},{"primitives":[{"attributes":{"POSITION":21,"NORMAL":22,"COLOR_0":23,"TEXCOORD_0":24},"indices":20,"material":0}],"name":"KnifePostHandle004"}],"accessors":[{"bufferView":0,"componentType":5123,"count":6348,"type":"SCALAR","name":"accessorIndices"},{"bufferView":1,"componentType":5126,"count":6348,"max":[0.0127,0.4587975,0.0913333744],"min":[-0.3327418,-0.7231126,-0.693317652],"type":"VEC3","name":"accessorPositions"},{"bufferView":1,"byteOffset":76176,"componentType":5126,"count":6348,"type":"VEC3","name":"accessorNormals"},{"bufferView":2,"componentType":5126,"count":6348,"type":"VEC4","name":"accessorColors"},{"bufferView":3,"componentType":5126,"count":6348,"type":"VEC2","name":"accessorUVs"},{"bufferView":0,"byteOffset":12696,"componentType":5123,"count":444,"type":"SCALAR","name":"accessorIndices"},{"bufferView":1,"byteOffset":152352,"componentType":5126,"count":444,"max":[0.00500279665,0.00176876469,0.03834612],"min":[-0.02519038,-0.0305055864,-0.00176876318],"type":"VEC3","name":"accessorPositions"},{"bufferView":1,"byteOffset":157680,"componentType":5126,"count":444,"type":"VEC3","name":"accessorNormals"},{"bufferView":2,"byteOffset":101568,"componentType":5126,"count":444,"type":"VEC4","name":"accessorColors"},{"bufferView":3,"byteOffset":50784,"componentType":5126,"count":444,"type":"VEC2","name":"accessorUVs"},{"bufferView":0,"byteOffset":13584,"componentType":5123,"count":444,"type":"SCALAR","name":"accessorIndices"},{"bufferView":1,"byteOffset":163008,"componentType":5126,"count":444,"max":[0.0364125073,0.00439646933,0.008910122],"min":[0.0,-0.02636842,-0.004396467],"type":"VEC3","name":"accessorPositions"},{"bufferView":1,"byteOffset":168336,"componentType":5126,"count":444,"type":"VEC3","name":"accessorNormals"},{"bufferView":2,"byteOffset":108672,"componentType":5126,"count":444,"type":"VEC4","name":"accessorColors"},{"bufferView":3,"byteOffset":54336,"componentType":5126,"count":444,"type":"VEC2","name":"accessorUVs"},{"bufferView":0,"byteOffset":14472,"componentType":5123,"count":444,"type":"SCALAR","name":"accessorIndices"},{"bufferView":1,"byteOffset":173664,"componentType":5126,"count":444,"max":[0.005080001,0.04064,0.00508],"min":[-0.005079999,0.0,-0.030467961],"type":"VEC3","name":"accessorPositions"},{"bufferView":1,"byteOffset":178992,"componentType":5126,"count":444,"type":"VEC3","name":"accessorNormals"},{"bufferView":2,"byteOffset":115776,"componentType":5126,"count":444,"type":"VEC4","name":"accessorColors"},{"bufferView":3,"byteOffset":57888,"componentType":5126,"count":444,"type":"VEC2","name":"accessorUVs"},{"bufferView":0,"byteOffset":15360,"componentType":5123,"count":444,"type":"SCALAR","name":"accessorIndices"},{"bufferView":1,"byteOffset":184320,"componentType":5126,"count":444,"max":[0.0364125073,0.025652295,0.0110109746],"min":[0.0,-0.004277073,-0.00427707471],"type":"VEC3","name":"accessorPositions"},{"bufferView":1,"byteOffset":189648,"componentType":5126,"count":444,"type":"VEC3","name":"accessorNormals"},{"bufferView":2,"byteOffset":122880,"componentType":5126,"count":444,"type":"VEC4","name":"accessorColors"},{"bufferView":3,"byteOffset":61440,"componentType":5126,"count":444,"type":"VEC2","name":"accessorUVs"},{"bufferView":4,"componentType":5126,"count":35,"max":[3.0],"min":[0.0],"type":"SCALAR","name":"accessorAnimationInput"},{"bufferView":5,"componentType":5126,"count":35,"type":"VEC4","name":"accessorAnimationRotations"}],"bufferViews":[{"buffer":0,"byteLength":16248,"name":"bufferViewScalar"},{"buffer":0,"byteOffset":16248,"byteLength":194976,"byteStride":12,"name":"bufferViewFloatVec3"},{"buffer":0,"byteOffset":211224,"byteLength":129984,"byteStride":16,"name":"bufferViewFloatVec4"},{"buffer":0,"byteOffset":341208,"byteLength":64992,"byteStride":8,"name":"bufferViewFloatVec2"},{"buffer":0,"byteOffset":406200,"byteLength":140,"name":"bufferViewAnimationFloatScalar"},{"buffer":0,"byteOffset":406340,"byteLength":560,"name":"bufferViewAnimationFloatVec4"}],"buffers":[{"uri":"PelletMill_Door.bin","byteLength":406900}],"materials":[{"pbrMetallicRoughness":{"baseColorTexture":{"index":2,"extensions":{"KHR_texture_transform":{"offset":[0.0,0.0],"scale":[1.0,1.0],"texCoord":0}}},"metallicRoughnessTexture":{"index":1,"extensions":{"KHR_texture_transform":{"offset":[0.0,0.0],"scale":[1.0,1.0],"texCoord":0}}}},"normalTexture":{"index":0,"extensions":{"KHR_texture_transform":{"offset":[0.0,0.0],"scale":[1.0,1.0],"texCoord":0}}},"occlusionTexture":{"index":1,"extensions":{"KHR_texture_transform":{"offset":[0.0,0.0],"scale":[1.0,1.0],"texCoord":0}}},"name":"Pellet Mill Door PBR"}],"textures":[{"sampler":0,"source":0,"name":"Pellet Mill Door Material_Normal_OpenGL.jpg"},{"sampler":0,"source":1,"name":"Pellet Mill Door Material_Ambient_occlusionPellet Mill Door Material_RoughnessPellet Mill Door Material_Metallic.jpg"},{"sampler":0,"source":2,"name":"Pellet Mill Door Material_Base_Color.jpg"}],"images":[{"uri":"./Pellet Mill Door Material_Normal_OpenGL.jpg"},{"uri":"./Pellet Mill Door Material_Ambient_occlusionPellet Mill Door Material_RoughnessPellet Mill Door Material_Metallic.jpg"},{"uri":"./Pellet Mill Door Material_Base_Color.jpg"}],"samplers":[{"magFilter":9729,"minFilter":9987}],"animations":[{"channels":[{"sampler":0,"target":{"node":0,"path":"rotation"}}],"samplers":[{"input":25,"output":26}],"name":"All Animations"}]}